<svg width="393" height="577" viewBox="0 0 393 577" fill="none" xmlns="http://www.w3.org/2000/svg">
<path d="M380.705 2.42676H-1.10925V568.393H380.705V2.42676Z" fill="#F9F9F9"/>
<path d="M275.907 76.009L280.366 119.424L308.96 146.837L315.518 144.738L336.241 121.916C336.241 121.916 373.229 48.7272 372.705 47.9402C372.18 47.2844 343.455 1.63989 343.455 1.63989L281.809 64.2044L275.907 76.009Z" fill="#F9F9F9"/>
<path d="M301.543 372.767L293.784 387.36L335.825 409.714L343.584 395.121L301.543 372.767Z" fill="#F9F9F9"/>
<path d="M347.909 396.207L340.15 410.8L355.669 419.052L363.428 404.459L347.909 396.207Z" fill="#F9F9F9"/>
<path d="M365.154 404.254L355.363 422.667L386.977 439.478L396.768 421.065L365.154 404.254Z" fill="#F9F9F9"/>
<path d="M244.952 3.21401L242.591 25.5116L245.345 30.2335L257.15 28.1349L281.283 0.459595L244.952 3.21401Z" fill="#F9F9F9"/>
<path d="M353.817 3.73865C358.67 9.37863 364.572 22.8884 364.572 22.8884L381.099 25.7739C381.099 25.7739 385.427 5.05027 385.296 4.78795C385.165 4.39446 353.817 3.73865 353.817 3.73865Z" fill="#F9F9F9"/>
<path d="M380.836 37.9723L374.278 47.6783L381.23 51.2197L380.836 37.9723Z" fill="#F9F9F9"/>
<path d="M366.539 155.231L374.803 194.055C374.803 194.055 384.115 197.597 384.115 197.334C384.115 196.941 388.312 140.279 388.312 139.623C388.312 139.098 382.541 130.835 382.541 130.835L366.539 155.231Z" fill="#F9F9F9"/>
<path d="M369.293 466.742C365.227 474.219 355.784 476.842 348.307 472.776L297.679 444.707C290.202 440.641 287.579 431.197 291.645 423.721C295.711 416.245 305.155 413.622 312.631 417.688L363.26 445.756C370.736 449.954 373.359 459.266 369.293 466.742Z" fill="#F9F9F9"/>
<path d="M0.85857 430.279C2.30136 430.935 121.266 498.615 121.266 498.615L130.578 517.502L113.396 568.656C113.396 568.656 -3.73211 575.345 -5.1749 571.673C-6.61769 568 -20.2586 491.663 -19.9963 489.565C-19.8651 487.466 0.85857 430.279 0.85857 430.279Z" fill="#F9F9F9"/>
<path d="M334.273 565.639C334.273 565.639 328.109 559.999 327.978 559.475C327.846 558.95 328.109 552.392 328.109 552.392C328.109 552.392 329.42 537.308 343.324 537.439C346.603 537.439 347.652 538.489 352.243 549.637C353.423 552.523 356.046 554.622 359.063 554.884C361.686 555.146 364.572 554.097 366.408 549.375C367.589 546.489 366.933 543.079 364.834 540.718L353.423 527.602C350.013 523.667 349.488 517.896 352.243 513.568L385.82 459.135L391.723 559.081C391.723 559.081 383.066 576.001 379 574.296C374.934 572.46 334.273 565.639 334.273 565.639Z" fill="#F9F9F9"/>
<path d="M188.683 462.414L194.717 460.84L217.539 474.087L206.784 494.549L211.768 497.041L209.538 501.894L179.24 484.056L188.683 462.414Z" fill="#F9F9F9"/>
<path d="M210.325 428.18C210.325 428.18 221.474 395.258 227.639 394.996C227.639 394.996 232.623 395.127 237.345 398.144C241.935 401.161 243.509 407.194 240.886 412.047L234.459 423.983C231.18 430.148 224.228 433.689 217.408 432.377C214.654 431.722 212.161 430.541 210.325 428.18Z" fill="#F9F9F9"/>
<path d="M241.41 369.551L237.082 380.044L248.756 384.372L261.216 375.453L267.905 379.782L277.611 377.027L285.481 367.452L283.251 363.124L241.41 369.551Z" fill="#F9F9F9"/>
<path d="M264.495 339.384L258.593 335.58L313.55 222.387L317.878 221.731L323.518 228.945L314.468 237.077L264.495 339.384Z" fill="#F9F9F9"/>
<path d="M260.56 493.762C263.708 496.385 267.512 498.09 271.315 499.927C273.807 501.107 276.693 502.287 279.185 501.107C282.071 499.795 282.989 495.861 281.808 492.844C280.759 489.827 278.267 487.597 275.775 485.499C271.315 481.564 264.626 476.711 258.461 480.252C252.953 483.138 257.019 490.745 260.56 493.762Z" fill="#F9F9F9"/>
<path d="M287.187 484.58C291.384 485.892 295.974 485.629 300.434 484.842C303.451 484.318 306.336 483.531 309.222 482.613C310.665 482.088 312.107 481.563 312.894 480.252C314.075 478.284 312.763 475.661 310.796 474.481C308.828 473.3 306.468 473.3 304.107 473.3C301.877 473.3 299.385 473.3 297.417 472.251C294.663 470.808 293.351 467.791 290.859 466.086C288.367 464.381 284.826 464.119 281.94 464.906C276.562 466.48 276.431 474.349 278.792 478.416C280.76 481.432 283.908 483.531 287.187 484.58Z" fill="#F9F9F9"/>
<g opacity="0.5">
<path opacity="0.5" d="M1.12085 433.557L42.6994 456.511L55.0286 468.578L53.9793 474.087L35.6166 509.763" stroke="#4D2161" stroke-width="0.5206" stroke-miterlimit="10" stroke-linecap="round" stroke-linejoin="round" stroke-dasharray="2.08 2.08"/>
<path opacity="0.5" d="M51.8804 499.139L47.1586 507.664L28.4023 511.993L21.1884 521.567L20.6638 532.585L13.581 546.62L1.6452 558.686" stroke="#4D2161" stroke-width="0.5206" stroke-miterlimit="10" stroke-linecap="round" stroke-linejoin="round" stroke-dasharray="2.08 2.08"/>
<path opacity="0.5" d="M43.4863 567.212L13.5812 546.62" stroke="#4D2161" stroke-width="0.5206" stroke-miterlimit="10" stroke-linecap="round" stroke-linejoin="round" stroke-dasharray="2.08 2.08"/>
<path opacity="0.5" d="M30.1075 537.569L20.6638 532.585" stroke="#4D2161" stroke-width="0.5206" stroke-miterlimit="10" stroke-linecap="round" stroke-linejoin="round" stroke-dasharray="2.08 2.08"/>
<path opacity="0.5" d="M58.0455 542.816L67.2268 526.289L67.8827 518.944L63.5543 514.616L47.159 507.664" stroke="#4D2161" stroke-width="0.5206" stroke-miterlimit="10" stroke-linecap="round" stroke-linejoin="round" stroke-dasharray="2.08 2.08"/>
<g opacity="0.5">
<path opacity="0.5" d="M294.662 49.1202L291.515 51.8746" stroke="#4D2161" stroke-width="0.5206" stroke-miterlimit="10" stroke-linecap="round" stroke-linejoin="round"/>
<path opacity="0.5" d="M296.499 50.9565L293.351 53.8421" stroke="#4D2161" stroke-width="0.5206" stroke-miterlimit="10" stroke-linecap="round" stroke-linejoin="round"/>
<path opacity="0.5" d="M298.204 52.9243L295.056 55.6787" stroke="#4D2161" stroke-width="0.5206" stroke-miterlimit="10" stroke-linecap="round" stroke-linejoin="round"/>
<path opacity="0.5" d="M300.04 54.7605L296.893 57.6461" stroke="#4D2161" stroke-width="0.5206" stroke-miterlimit="10" stroke-linecap="round" stroke-linejoin="round"/>
<path opacity="0.5" d="M301.877 56.7278L298.729 59.4822" stroke="#4D2161" stroke-width="0.5206" stroke-miterlimit="10" stroke-linecap="round" stroke-linejoin="round"/>
<path opacity="0.5" d="M303.581 58.5645L300.433 61.45" stroke="#4D2161" stroke-width="0.5206" stroke-miterlimit="10" stroke-linecap="round" stroke-linejoin="round"/>
</g>
<g opacity="0.5">
<path opacity="0.5" d="M325.748 17.248L322.6 20.0025" stroke="#4D2161" stroke-width="0.5206" stroke-miterlimit="10" stroke-linecap="round" stroke-linejoin="round"/>
<path opacity="0.5" d="M327.584 19.0844L324.436 21.9699" stroke="#4D2161" stroke-width="0.5206" stroke-miterlimit="10" stroke-linecap="round" stroke-linejoin="round"/>
<path opacity="0.5" d="M329.42 21.0521L326.272 23.8065" stroke="#4D2161" stroke-width="0.5206" stroke-miterlimit="10" stroke-linecap="round" stroke-linejoin="round"/>
<path opacity="0.5" d="M331.126 22.8877L327.978 25.7733" stroke="#4D2161" stroke-width="0.5206" stroke-miterlimit="10" stroke-linecap="round" stroke-linejoin="round"/>
<path opacity="0.5" d="M332.962 24.8555L329.814 27.6099" stroke="#4D2161" stroke-width="0.5206" stroke-miterlimit="10" stroke-linecap="round" stroke-linejoin="round"/>
<path opacity="0.5" d="M334.798 26.6921L331.65 29.5777" stroke="#4D2161" stroke-width="0.5206" stroke-miterlimit="10" stroke-linecap="round" stroke-linejoin="round"/>
</g>
<path opacity="0.5" d="M340.963 117.456C340.307 116.931 309.091 99.0933 309.091 99.0933" stroke="#4D2161" stroke-width="0.5206" stroke-miterlimit="10" stroke-linecap="round" stroke-linejoin="round" stroke-dasharray="2.08 2.08"/>
<path opacity="0.5" d="M335.454 28.9214L369.031 55.285" stroke="#4D2161" stroke-width="0.5206" stroke-miterlimit="10" stroke-linecap="round" stroke-linejoin="round" stroke-dasharray="2.08 2.08"/>
<g opacity="0.5">
<g opacity="0.5">
<g opacity="0.5">
<path opacity="0.5" d="M57.3895 95.8142L58.5699 96.47" stroke="#4D2161" stroke-width="0.5206" stroke-linecap="round" stroke-linejoin="round"/>
<path opacity="0.5" d="M60.9313 97.7819L86.6391 112.341L113.527 137.131L127.431 146.312L129.923 148.542" stroke="#4D2161" stroke-width="0.5206" stroke-linecap="round" stroke-linejoin="round" stroke-dasharray="2.08 2.08"/>
<path opacity="0.5" d="M130.84 149.459L131.89 150.509" stroke="#4D2161" stroke-width="0.5206" stroke-linecap="round" stroke-linejoin="round"/>
</g>
</g>
<path opacity="0.5" d="M128.217 146.706L179.895 140.672L215.178 175.168L208.751 182.119" stroke="#4D2161" stroke-width="0.5206" stroke-miterlimit="10" stroke-linecap="round" stroke-linejoin="round" stroke-dasharray="2.08 2.08"/>
<path opacity="0.5" d="M312.763 195.235L302.664 186.316L287.58 179.496L245.608 174.511L214.654 175.036" stroke="#4D2161" stroke-width="0.5206" stroke-miterlimit="10" stroke-linecap="round" stroke-linejoin="round" stroke-dasharray="2.08 2.08"/>
<path opacity="0.5" d="M287.186 136.605L289.154 218.189" stroke="#4D2161" stroke-width="0.5206" stroke-miterlimit="10" stroke-linecap="round" stroke-linejoin="round" stroke-dasharray="2.08 2.08"/>
<path opacity="0.5" d="M313.025 158.903L282.333 235.895" stroke="#4D2161" stroke-width="0.5206" stroke-miterlimit="10" stroke-linecap="round" stroke-linejoin="round" stroke-dasharray="2.08 2.08"/>
<path opacity="0.5" d="M277.218 248.356L190.126 431.065" stroke="#4D2161" stroke-width="0.5206" stroke-miterlimit="10" stroke-linecap="round" stroke-linejoin="round" stroke-dasharray="2.08 2.08"/>
<path opacity="0.5" d="M146.58 520.387L142.383 519.075L140.94 506.746L-0.977966 425.032" stroke="#4D2161" stroke-width="0.5206" stroke-miterlimit="10" stroke-linecap="round" stroke-linejoin="round" stroke-dasharray="2.08 2.08"/>
<path opacity="0.5" d="M121.266 568.131L142.383 519.076" stroke="#4D2161" stroke-width="0.5206" stroke-miterlimit="10" stroke-linecap="round" stroke-linejoin="round" stroke-dasharray="2.08 2.08"/>
<path opacity="0.5" d="M233.147 566.557C232.098 566.032 157.598 523.798 157.598 523.798" stroke="#4D2161" stroke-width="0.5206" stroke-miterlimit="10" stroke-linecap="round" stroke-linejoin="round" stroke-dasharray="2.08 2.08"/>
<path opacity="0.5" d="M147.761 566.95L164.288 527.208" stroke="#4D2161" stroke-width="0.5206" stroke-miterlimit="10" stroke-linecap="round" stroke-linejoin="round" stroke-dasharray="2.08 2.08"/>
<path opacity="0.5" d="M297.942 566.426C296.368 565.507 230.656 529.175 202.849 513.829C196.16 510.157 193.799 501.631 197.603 495.073L216.359 462.151" stroke="#4D2161" stroke-width="0.5206" stroke-miterlimit="10" stroke-linecap="round" stroke-linejoin="round" stroke-dasharray="2.08 2.08"/>
<path opacity="0.5" d="M-0.321828 363.91C-0.321828 362.468 143.563 237.732 143.563 237.732C143.563 237.732 96.6072 162.707 41.7813 130.179L-7.27344 158.248" stroke="#4D2161" stroke-width="0.5206" stroke-miterlimit="10" stroke-linecap="round" stroke-linejoin="round" stroke-dasharray="2.08 2.08"/>
<path opacity="0.5" d="M239.837 51.6125L245.871 44.3985L198.914 3.47583" stroke="#4D2161" stroke-width="0.5206" stroke-miterlimit="10" stroke-linecap="round" stroke-linejoin="round" stroke-dasharray="2.08 2.08"/>
<path opacity="0.5" d="M237.738 51.0882C237.083 50.957 194.455 13.4445 194.455 13.4445L191.963 15.412L178.584 3.73853" stroke="#4D2161" stroke-width="0.5206" stroke-miterlimit="10" stroke-linecap="round" stroke-linejoin="round" stroke-dasharray="2.08 2.08"/>
<path opacity="0.5" d="M174.387 14.4937L164.156 4.78772" stroke="#4D2161" stroke-width="0.5206" stroke-miterlimit="10" stroke-linecap="round" stroke-linejoin="round" stroke-dasharray="2.08 2.08"/>
<path opacity="0.5" d="M221.605 68.1386C221.474 67.7452 210.325 58.4326 210.325 58.4326L182.912 87.4195L207.177 112.078L151.171 168.216" stroke="#4D2161" stroke-width="0.5206" stroke-miterlimit="10" stroke-linecap="round" stroke-linejoin="round" stroke-dasharray="2.08 2.08"/>
<g opacity="0.5">
<path opacity="0.5" d="M274.464 97.519L275.251 101.716" stroke="#4D2161" stroke-width="0.5206" stroke-miterlimit="10" stroke-linecap="round" stroke-linejoin="round"/>
<path opacity="0.5" d="M277.087 96.9948L277.743 101.192" stroke="#4D2161" stroke-width="0.5206" stroke-miterlimit="10" stroke-linecap="round" stroke-linejoin="round"/>
<path opacity="0.5" d="M279.579 96.4698L280.366 100.536" stroke="#4D2161" stroke-width="0.5206" stroke-miterlimit="10" stroke-linecap="round" stroke-linejoin="round"/>
<path opacity="0.5" d="M282.202 95.9451L282.989 100.011" stroke="#4D2161" stroke-width="0.5206" stroke-miterlimit="10" stroke-linecap="round" stroke-linejoin="round"/>
<path opacity="0.5" d="M284.694 95.4202L285.481 99.4862" stroke="#4D2161" stroke-width="0.5206" stroke-miterlimit="10" stroke-linecap="round" stroke-linejoin="round"/>
<path opacity="0.5" d="M287.317 94.8959L288.104 98.9619" stroke="#4D2161" stroke-width="0.5206" stroke-miterlimit="10" stroke-linecap="round" stroke-linejoin="round"/>
</g>
<path opacity="0.5" d="M381.492 76.0083C381.099 76.0083 278.136 63.5479 278.136 63.5479" stroke="#4D2161" stroke-width="0.5206" stroke-miterlimit="10" stroke-linecap="round" stroke-linejoin="round" stroke-dasharray="2.08 2.08"/>
<path opacity="0.5" d="M378.738 98.5686L334.929 70.2375" stroke="#4D2161" stroke-width="0.5206" stroke-miterlimit="10" stroke-linecap="round" stroke-linejoin="round" stroke-dasharray="2.08 2.08"/>
<path opacity="0.5" d="M287.579 96.6012L325.354 142.377" stroke="#4D2161" stroke-width="0.5206" stroke-miterlimit="10" stroke-linecap="round" stroke-linejoin="round" stroke-dasharray="2.08 2.08"/>
<path opacity="0.5" d="M292.564 71.1556C292.958 70.631 354.604 9.24695 354.604 9.24695L372.442 48.7269L381.886 59.7445" stroke="#4D2161" stroke-width="0.5206" stroke-miterlimit="10" stroke-linecap="round" stroke-linejoin="round" stroke-dasharray="2.08 2.08"/>
<path opacity="0.5" d="M387.263 19.7402C386.87 19.4778 357.227 15.543 357.227 15.543" stroke="#4D2161" stroke-width="0.5206" stroke-miterlimit="10" stroke-linecap="round" stroke-linejoin="round" stroke-dasharray="2.08 2.08"/>
<path opacity="0.5" d="M380.836 25.6423L348.833 105.914" stroke="#4D2161" stroke-width="0.5206" stroke-miterlimit="10" stroke-linecap="round" stroke-linejoin="round" stroke-dasharray="2.08 2.08"/>
<path opacity="0.5" d="M344.767 192.219L369.032 180.545L382.41 165.593" stroke="#4D2161" stroke-width="0.5206" stroke-miterlimit="10" stroke-linecap="round" stroke-linejoin="round" stroke-dasharray="2.08 2.08"/>
<path opacity="0.5" d="M316.566 197.989L319.583 201.662L307.91 235.24L216.621 417.031L172.288 507.271L281.021 570.884" stroke="#4D2161" stroke-width="0.5206" stroke-miterlimit="10" stroke-linecap="round" stroke-linejoin="round" stroke-dasharray="2.08 2.08"/>
<path opacity="0.5" d="M263.184 453.232L308.172 479.858" stroke="#4D2161" stroke-width="0.5206" stroke-miterlimit="10" stroke-linecap="round" stroke-linejoin="round" stroke-dasharray="2.08 2.08"/>
<path opacity="0.5" d="M320.764 460.184L290.728 513.436" stroke="#4D2161" stroke-width="0.5206" stroke-miterlimit="10" stroke-linecap="round" stroke-linejoin="round" stroke-dasharray="2.08 2.08"/>
<path opacity="0.5" d="M279.054 418.736C279.054 418.211 288.498 401.291 288.498 401.291L298.466 395.52L383.722 442.214" stroke="#4D2161" stroke-width="0.5206" stroke-miterlimit="10" stroke-linecap="round" stroke-linejoin="round" stroke-dasharray="2.08 2.08"/>
<path opacity="0.5" d="M294.794 359.058L383.984 408.637" stroke="#4D2161" stroke-width="0.5206" stroke-miterlimit="10" stroke-linecap="round" stroke-linejoin="round" stroke-dasharray="2.08 2.08"/>
<path opacity="0.5" d="M276.562 462.807L272.103 471.202C270.267 474.743 271.316 479.203 274.726 481.301L286.793 489.171C290.072 491.27 291.121 495.598 289.154 499.008L283.121 509.37" stroke="#4D2161" stroke-width="0.5206" stroke-miterlimit="10" stroke-linecap="round" stroke-linejoin="round" stroke-dasharray="2.08 2.08"/>
<path opacity="0.5" d="M61.7182 330.464L82.0484 346.859L145.269 379.256" stroke="#4D2161" stroke-width="0.5206" stroke-miterlimit="10" stroke-linecap="round" stroke-linejoin="round" stroke-dasharray="2.08 2.08"/>
<path opacity="0.5" d="M181.207 348.696L150.646 361.55L143.301 390.012" stroke="#4D2161" stroke-width="0.5206" stroke-miterlimit="10" stroke-linecap="round" stroke-linejoin="round" stroke-dasharray="2.08 2.08"/>
<path opacity="0.5" d="M60.9308 394.34C60.0127 393.815 6.23608 380.437 6.23608 380.437" stroke="#4D2161" stroke-width="0.5206" stroke-miterlimit="10" stroke-linecap="round" stroke-linejoin="round" stroke-dasharray="2.08 2.08"/>
<path opacity="0.5" d="M79.5558 312.232L-0.190979 384.765" stroke="#4D2161" stroke-width="0.5206" stroke-miterlimit="10" stroke-linecap="round" stroke-linejoin="round" stroke-dasharray="2.08 2.08"/>
<path opacity="0.5" d="M195.373 264.752V271.834L162.713 321.02C162.713 321.02 137.268 311.052 136.219 309.871C135.169 308.691 114.97 283.77 114.97 283.77L101.067 284.819" stroke="#4D2161" stroke-width="0.5206" stroke-miterlimit="10" stroke-linecap="round" stroke-linejoin="round" stroke-dasharray="2.08 2.08"/>
<path opacity="0.5" d="M174.255 319.97L169.927 335.185" stroke="#4D2161" stroke-width="0.5206" stroke-miterlimit="10" stroke-linecap="round" stroke-linejoin="round" stroke-dasharray="2.08 2.08"/>
<path opacity="0.5" d="M162.713 321.02L172.419 324.562" stroke="#4D2161" stroke-width="0.5206" stroke-miterlimit="10" stroke-linecap="round" stroke-linejoin="round" stroke-dasharray="2.08 2.08"/>
<path opacity="0.5" d="M211.636 339.908L231.049 344.105" stroke="#4D2161" stroke-width="0.5206" stroke-miterlimit="10" stroke-linecap="round" stroke-linejoin="round" stroke-dasharray="2.08 2.08"/>
<path opacity="0.5" d="M240.492 277.343L199.963 269.08L194.848 291.902" stroke="#4D2161" stroke-width="0.5206" stroke-miterlimit="10" stroke-linecap="round" stroke-linejoin="round" stroke-dasharray="2.08 2.08"/>
<path opacity="0.5" d="M146.58 313.544C146.58 313.544 189.47 276.949 189.076 276.425C188.683 275.9 154.712 238.781 154.712 238.781" stroke="#4D2161" stroke-width="0.5206" stroke-miterlimit="10" stroke-linecap="round" stroke-linejoin="round" stroke-dasharray="2.08 2.08"/>
<path opacity="0.5" d="M150.909 250.979L159.303 244.027" stroke="#4D2161" stroke-width="0.5206" stroke-miterlimit="10" stroke-linecap="round" stroke-linejoin="round" stroke-dasharray="2.08 2.08"/>
<path opacity="0.5" d="M83.6224 172.938L2.17053 241.536" stroke="#4D2161" stroke-width="0.5206" stroke-miterlimit="10" stroke-linecap="round" stroke-linejoin="round" stroke-dasharray="2.08 2.08"/>
<path opacity="0.5" d="M19.4835 226.19L26.8286 236.158L35.3541 229.075L84.8024 288.492" stroke="#4D2161" stroke-width="0.5206" stroke-miterlimit="10" stroke-linecap="round" stroke-linejoin="round" stroke-dasharray="2.08 2.08"/>
<path opacity="0.5" d="M311.976 304.362L281.021 289.147" stroke="#4D2161" stroke-width="0.5206" stroke-miterlimit="10" stroke-linecap="round" stroke-linejoin="round" stroke-dasharray="2.08 2.08"/>
<path opacity="0.5" d="M325.223 243.634L338.733 232.354L336.766 227.633L348.57 217.664L342.537 212.418L354.866 202.056" stroke="#4D2161" stroke-width="0.5206" stroke-miterlimit="10" stroke-linecap="round" stroke-linejoin="round" stroke-dasharray="2.08 2.08"/>
<path opacity="0.5" d="M164.681 431.853L186.191 437.886L175.305 450.084L155.63 488.384L149.466 489.958L0.0717163 408.112" stroke="#4D2161" stroke-width="0.5206" stroke-miterlimit="10" stroke-linecap="round" stroke-linejoin="round" stroke-dasharray="2.08 2.08"/>
<g opacity="0.5">
<path opacity="0.5" d="M140.153 502.68L143.826 504.778" stroke="#4D2161" stroke-width="0.5206" stroke-miterlimit="10" stroke-linecap="round" stroke-linejoin="round"/>
<path opacity="0.5" d="M141.333 500.319L145.006 502.418" stroke="#4D2161" stroke-width="0.5206" stroke-miterlimit="10" stroke-linecap="round" stroke-linejoin="round"/>
<path opacity="0.5" d="M142.513 498.089L146.186 500.057" stroke="#4D2161" stroke-width="0.5206" stroke-miterlimit="10" stroke-linecap="round" stroke-linejoin="round"/>
<path opacity="0.5" d="M143.825 495.729L147.498 497.827" stroke="#4D2161" stroke-width="0.5206" stroke-miterlimit="10" stroke-linecap="round" stroke-linejoin="round"/>
<path opacity="0.5" d="M145.006 493.368L148.679 495.467" stroke="#4D2161" stroke-width="0.5206" stroke-miterlimit="10" stroke-linecap="round" stroke-linejoin="round"/>
<path opacity="0.5" d="M146.187 491.138L149.859 493.105" stroke="#4D2161" stroke-width="0.5206" stroke-miterlimit="10" stroke-linecap="round" stroke-linejoin="round"/>
</g>
<g opacity="0.5">
<path opacity="0.5" d="M157.991 488.515L154.712 491.138" stroke="#4D2161" stroke-width="0.5206" stroke-miterlimit="10" stroke-linecap="round" stroke-linejoin="round"/>
<path opacity="0.5" d="M159.695 490.482L156.416 493.106" stroke="#4D2161" stroke-width="0.5206" stroke-miterlimit="10" stroke-linecap="round" stroke-linejoin="round"/>
<path opacity="0.5" d="M161.401 492.581L157.991 495.073" stroke="#4D2161" stroke-width="0.5206" stroke-miterlimit="10" stroke-linecap="round" stroke-linejoin="round"/>
<path opacity="0.5" d="M162.974 494.549L159.695 497.172" stroke="#4D2161" stroke-width="0.5206" stroke-miterlimit="10" stroke-linecap="round" stroke-linejoin="round"/>
<path opacity="0.5" d="M164.68 496.647L161.27 499.139" stroke="#4D2161" stroke-width="0.5206" stroke-miterlimit="10" stroke-linecap="round" stroke-linejoin="round"/>
<path opacity="0.5" d="M166.385 498.615L162.975 501.238" stroke="#4D2161" stroke-width="0.5206" stroke-miterlimit="10" stroke-linecap="round" stroke-linejoin="round"/>
</g>
<g opacity="0.5">
<path opacity="0.5" d="M164.418 523.273L168.222 525.109" stroke="#4D2161" stroke-width="0.5206" stroke-miterlimit="10" stroke-linecap="round" stroke-linejoin="round"/>
<path opacity="0.5" d="M165.467 520.912L169.271 522.748" stroke="#4D2161" stroke-width="0.5206" stroke-miterlimit="10" stroke-linecap="round" stroke-linejoin="round"/>
<path opacity="0.5" d="M166.517 518.551L170.321 520.388" stroke="#4D2161" stroke-width="0.5206" stroke-miterlimit="10" stroke-linecap="round" stroke-linejoin="round"/>
<path opacity="0.5" d="M167.697 516.19L171.501 518.026" stroke="#4D2161" stroke-width="0.5206" stroke-miterlimit="10" stroke-linecap="round" stroke-linejoin="round"/>
<path opacity="0.5" d="M168.746 513.698L172.55 515.665" stroke="#4D2161" stroke-width="0.5206" stroke-miterlimit="10" stroke-linecap="round" stroke-linejoin="round"/>
<path opacity="0.5" d="M169.796 511.337L173.6 513.305" stroke="#4D2161" stroke-width="0.5206" stroke-miterlimit="10" stroke-linecap="round" stroke-linejoin="round"/>
</g>
<g opacity="0.5">
<path opacity="0.5" d="M289.023 384.765L292.695 386.602" stroke="#4D2161" stroke-width="0.5206" stroke-miterlimit="10" stroke-linecap="round" stroke-linejoin="round"/>
<path opacity="0.5" d="M290.072 382.404L293.876 384.24" stroke="#4D2161" stroke-width="0.5206" stroke-miterlimit="10" stroke-linecap="round" stroke-linejoin="round"/>
<path opacity="0.5" d="M291.122 379.912L294.925 381.879" stroke="#4D2161" stroke-width="0.5206" stroke-miterlimit="10" stroke-linecap="round" stroke-linejoin="round"/>
<path opacity="0.5" d="M292.302 377.551L295.974 379.519" stroke="#4D2161" stroke-width="0.5206" stroke-miterlimit="10" stroke-linecap="round" stroke-linejoin="round"/>
<path opacity="0.5" d="M293.351 375.19L297.155 377.157" stroke="#4D2161" stroke-width="0.5206" stroke-miterlimit="10" stroke-linecap="round" stroke-linejoin="round"/>
<path opacity="0.5" d="M294.401 372.829L298.204 374.666" stroke="#4D2161" stroke-width="0.5206" stroke-miterlimit="10" stroke-linecap="round" stroke-linejoin="round"/>
</g>
<g opacity="0.5">
<path opacity="0.5" d="M275.25 247.307L279.054 249.274" stroke="#4D2161" stroke-width="0.5206" stroke-miterlimit="10" stroke-linecap="round" stroke-linejoin="round"/>
<path opacity="0.5" d="M276.299 244.946L280.103 246.914" stroke="#4D2161" stroke-width="0.5206" stroke-miterlimit="10" stroke-linecap="round" stroke-linejoin="round"/>
<path opacity="0.5" d="M277.48 242.585L281.284 244.421" stroke="#4D2161" stroke-width="0.5206" stroke-miterlimit="10" stroke-linecap="round" stroke-linejoin="round"/>
<path opacity="0.5" d="M278.529 240.224L282.333 242.061" stroke="#4D2161" stroke-width="0.5206" stroke-miterlimit="10" stroke-linecap="round" stroke-linejoin="round"/>
<path opacity="0.5" d="M279.578 237.863L283.382 239.699" stroke="#4D2161" stroke-width="0.5206" stroke-miterlimit="10" stroke-linecap="round" stroke-linejoin="round"/>
<path opacity="0.5" d="M280.759 235.502L284.563 237.339" stroke="#4D2161" stroke-width="0.5206" stroke-miterlimit="10" stroke-linecap="round" stroke-linejoin="round"/>
</g>
<path opacity="0.5" d="M-0.0593872 32.2004L52.7991 80.9929L47.1591 87.1575" stroke="#4D2161" stroke-width="0.5206" stroke-miterlimit="10" stroke-linecap="round" stroke-linejoin="round" stroke-dasharray="2.08 2.08"/>
<path opacity="0.5" d="M241.935 368.37L280.759 362.074L300.302 367.452L383.066 410.867" stroke="#4D2161" stroke-width="0.5206" stroke-miterlimit="10" stroke-linecap="round" stroke-linejoin="round" stroke-dasharray="2.08 2.08"/>
<path opacity="0.5" d="M275.906 450.871C275.906 450.74 276.431 449.691 277.218 448.379C280.234 443.395 286.793 441.559 291.908 444.444L346.865 475.399C352.111 478.415 353.948 484.974 350.931 490.22L348.439 494.811" stroke="#4D2161" stroke-width="0.5206" stroke-miterlimit="10" stroke-linecap="round" stroke-linejoin="round" stroke-dasharray="2.08 2.08"/>
</g>
<path opacity="0.5" d="M369.294 466.742C365.228 474.218 355.784 476.841 348.308 472.775L297.679 444.706C290.203 440.64 287.58 431.197 291.646 423.72C295.712 416.244 305.156 413.621 312.632 417.687L363.26 445.756C370.737 449.953 373.36 459.266 369.294 466.742Z" stroke="#4D2161" stroke-width="0.5543" stroke-miterlimit="10" stroke-linecap="round" stroke-linejoin="round" stroke-dasharray="2.22 2.22"/>
</g>
<path d="M206.259 112.209C205.472 112.996 205.472 114.308 206.39 115.095L239.968 146.836L244.689 184.349L235.115 227.239L201.537 192.087L209.538 184.218C210.325 183.431 210.325 182.119 209.538 181.332C208.751 180.545 207.439 180.545 206.652 181.332L184.879 202.712L137.53 153.001C136.743 152.214 135.431 152.214 134.644 152.87C133.857 153.657 133.857 154.968 134.513 155.755L182.387 205.991L178.715 213.86L141.333 247.176L109.199 209.138C109.068 209.007 109.068 208.876 108.936 208.614C108.805 208.483 108.674 208.352 108.412 208.22L84.8025 180.283C84.409 179.889 83.8843 179.627 83.3597 179.496C82.835 179.496 82.3104 179.627 81.9169 180.02L40.863 215.434C37.9775 217.926 37.584 222.124 39.9449 225.009L55.6844 244.946C58.0453 247.963 62.2425 248.487 65.3904 246.126L106.969 212.68L138.186 249.799L44.9291 332.825L34.3049 319.577L64.4723 293.738C69.063 289.803 69.7188 282.983 65.9151 278.13L35.6165 240.355C35.223 239.962 34.8296 239.699 34.3049 239.568L15.811 237.338C14.7617 237.207 13.7124 237.994 13.5812 239.175C13.4501 240.355 14.237 241.273 15.4175 241.404L33.1244 243.503L42.0435 254.521L7.67893 284.688C5.58033 286.524 5.318 289.803 7.02312 292.033L42.3058 335.841L-0.584308 374.01C-1.37128 374.797 -1.50245 376.108 -0.715473 376.895C-0.321986 377.289 0.202665 377.551 0.858478 377.551C1.38313 377.551 1.77662 377.42 2.1701 377.026L75.4899 311.708L180.682 349.745L177.797 363.91C177.534 364.96 178.321 366.14 179.371 366.271C179.502 366.271 179.633 366.271 179.764 366.271C180.682 366.271 181.6 365.615 181.732 364.697L196.553 293.082C196.815 292.033 196.028 290.853 194.979 290.722C193.93 290.459 192.749 291.246 192.618 292.296L181.469 345.679L78.9002 308.56L89.6555 298.985C91.2294 301.346 95.0331 305.805 101.591 305.805C101.854 305.805 101.985 305.805 102.247 305.805C102.641 305.805 103.165 305.674 103.428 305.281L110.641 299.378C111.56 298.722 111.691 297.411 110.904 296.493C110.248 295.575 108.936 295.443 108.018 296.23L101.329 301.739C96.2136 301.608 93.4592 297.673 92.6722 296.362L159.827 236.551L183.305 263.309C185.273 265.538 188.158 266.719 191.044 266.719C193.405 266.719 195.766 265.932 197.733 264.227L206.652 256.488C208.751 254.652 210.063 252.16 210.194 249.405C210.325 246.651 209.407 243.897 207.571 241.929L183.043 215.041L186.716 207.04L198.783 195.235L234.197 232.354L225.802 270.129C225.54 271.178 226.196 272.359 227.376 272.621C227.507 272.621 227.638 272.621 227.77 272.621C228.688 272.621 229.606 271.965 229.737 271.047L248.756 185.267C248.756 185.005 248.756 184.742 248.756 184.611L243.903 146.049C243.903 145.525 243.64 145.131 243.247 144.869L209.013 112.603C208.357 111.291 207.046 111.422 206.259 112.209ZM63.0295 243.241C61.7179 244.159 60.0128 243.897 59.0946 242.716L43.3551 222.779C42.437 221.599 42.5681 219.763 43.7486 218.845L83.2285 184.742L104.477 209.925L63.0295 243.241ZM10.0399 289.41C9.64636 288.885 9.64636 288.229 10.171 287.705L44.4044 257.669L63.0295 281.016C65.3904 284.032 64.9969 288.361 62.1114 290.853L31.944 316.561L10.0399 289.41ZM204.554 244.552C205.734 245.733 206.259 247.438 206.128 249.012C205.997 250.717 205.21 252.16 204.029 253.34L195.11 261.079C192.618 263.309 188.683 263.046 186.453 260.423L162.975 233.666L180.551 218.058L204.554 244.552Z" fill="white" stroke="#BBB4B5" stroke-width="0.5206" stroke-miterlimit="10"/>
<path d="M388.968 325.873L368.113 325.349L368.507 296.755L382.803 302.657C383.853 303.051 385.033 302.526 385.558 301.608C385.951 300.559 385.427 299.378 384.508 298.985L368.113 292.164C367.851 292.033 367.72 292.033 367.457 292.033C367.457 292.033 367.457 292.033 367.326 292.033H365.883L320.108 290.459C319.321 290.459 318.665 290.853 318.271 291.509L302.925 319.446C302.794 319.709 302.663 319.971 302.663 320.364L300.958 355.778L291.645 356.696L250.329 335.71L321.55 184.874L348.701 197.727L364.309 214.516L328.764 243.503C327.846 244.159 327.715 245.471 328.502 246.389C328.896 246.913 329.551 247.176 330.076 247.176C330.469 247.176 330.994 247.045 331.388 246.651L341.618 238.388L365.752 258.587C366.146 258.849 366.539 259.112 367.064 259.112C367.588 259.112 368.244 258.849 368.638 258.325C369.425 257.406 369.294 256.226 368.375 255.439L344.766 235.633L353.554 228.42L379.918 256.619C380.311 257.013 380.836 257.275 381.361 257.275C381.885 257.275 382.41 257.144 382.803 256.751C383.59 255.964 383.721 254.652 382.934 253.865L356.702 225.927L383.197 204.286C384.115 203.63 384.246 202.318 383.459 201.4C382.803 200.482 381.492 200.351 380.574 201.138L367.326 211.893L351.324 194.711C351.193 194.58 350.931 194.317 350.669 194.317L323.124 181.332L324.698 177.922C327.322 172.282 325.879 165.593 321.157 161.527L318.796 159.428L348.701 109.717C349.226 108.799 348.963 107.488 348.045 106.963C347.127 106.438 345.815 106.701 345.291 107.619L315.779 156.674L277.742 124.145C276.299 122.965 274.201 123.096 272.889 124.539C271.709 125.982 271.84 128.08 273.283 129.392L316.829 166.642C319.189 168.741 319.977 172.02 318.534 174.905L243.902 332.825L242.328 336.235L160.352 509.632L147.104 495.991C146.842 495.729 146.58 495.597 146.317 495.335L119.691 480.514C120.216 480.383 120.61 479.989 120.872 479.464L125.331 470.677C125.463 470.545 125.463 470.414 125.463 470.283L144.743 392.635C144.875 392.11 144.743 391.586 144.481 391.061C144.219 390.536 143.694 390.274 143.169 390.143L81.1296 375.715C80.0803 375.453 78.8998 376.108 78.6375 377.289C78.3752 378.338 79.031 379.519 80.2115 379.781L140.284 393.684L121.528 469.103L117.199 477.759C116.937 478.284 116.937 478.678 117.068 479.202L69.0627 452.576L87.4254 416.9C88.8682 414.277 88.9993 411.129 88.0812 408.243C87.0319 405.358 85.0645 403.128 82.3101 401.816L63.8161 393.422C62.7669 392.897 61.5864 393.422 61.0617 394.471C60.5371 395.521 61.0617 396.701 62.111 397.226L80.6049 405.62C82.3101 406.407 83.6217 407.85 84.2775 409.555C84.9333 411.391 84.8021 413.227 83.884 414.933L65.5213 450.609L0.0711894 414.146C-1.63392 413.227 -3.60136 413.883 -4.5195 415.457C-5.43763 417.162 -4.78182 419.13 -3.20787 420.048L142.514 501.106L157.073 516.059L157.204 516.19L132.676 568.13C131.889 569.835 132.545 571.934 134.25 572.721C134.775 572.983 135.169 573.115 135.693 573.115C137.005 573.115 138.185 572.328 138.841 571.147L161.008 524.322L253.477 575.607C254.002 575.869 254.526 576 255.182 576C256.363 576 257.543 575.344 258.199 574.295C259.117 572.59 258.461 570.622 256.887 569.704L164.024 518.157L227.376 383.978L252.559 396.701L216.489 458.741C215.965 459.659 216.227 460.971 217.276 461.495C217.539 461.626 217.932 461.758 218.326 461.758C218.981 461.758 219.768 461.364 220.162 460.708L236.426 432.771L262.396 447.723L244.427 480.383C242.328 484.186 243.64 488.908 247.312 491.138L292.432 519.076C293.744 519.863 295.187 520.256 296.761 520.256C297.417 520.256 298.204 520.125 298.859 519.994C300.958 519.469 302.794 517.895 303.844 516.059L322.206 481.957L343.455 494.155C345.553 495.335 346.996 497.303 347.521 499.532C348.045 501.893 347.783 504.254 346.471 506.222L325.879 539.143C325.748 539.275 325.748 539.406 325.616 539.537L316.042 567.212C315.648 568.261 316.304 569.442 317.353 569.835C317.616 569.967 317.747 569.967 318.009 569.967C318.796 569.967 319.714 569.442 319.976 568.524L329.42 541.111L349.882 508.451C351.718 505.435 352.242 502.024 351.455 498.614C350.668 495.204 348.439 492.45 345.422 490.613L267.905 446.018L281.021 422.146C281.546 421.097 281.152 419.917 280.234 419.392C279.185 418.867 278.004 419.261 277.48 420.179L264.364 443.919L238.393 428.967L257.281 396.57C257.543 396.045 257.674 395.521 257.412 394.996C257.281 394.471 256.887 393.947 256.363 393.684L229.212 380.043L248.362 339.383L290.071 360.5C290.334 360.631 290.727 360.762 290.99 360.762C291.121 360.762 291.121 360.762 291.252 360.762L302.925 359.582L380.311 362.336H380.442C381.492 362.336 382.41 361.418 382.541 360.369C382.541 359.188 381.754 358.27 380.574 358.27L305.024 355.516L306.598 320.889L321.157 294.525L364.441 295.968L364.047 325.217L350.537 324.955C349.488 324.955 348.439 325.873 348.439 326.923C348.439 328.103 349.357 329.021 350.406 329.021L365.096 329.415H366.67L388.706 329.939C389.755 329.939 390.673 329.021 390.804 327.972C390.935 326.791 390.017 325.873 388.968 325.873ZM266.069 449.559L318.665 479.858L300.302 514.091C299.777 515.141 298.859 515.797 297.81 516.059C296.761 516.321 295.58 516.19 294.662 515.534L249.542 487.597C247.706 486.416 247.05 484.186 248.099 482.219L266.069 449.559Z" fill="white" stroke="#BBB4B5" stroke-width="0.5206" stroke-miterlimit="10"/>
<path d="M270.266 123.752C270.659 124.145 271.184 124.276 271.709 124.276C272.233 124.276 272.758 124.014 273.151 123.621C273.938 122.834 273.938 121.522 273.02 120.735L221.342 71.418L237.869 53.711L265.282 76.0087C266.069 76.6645 267.249 76.6645 268.036 75.8775L337.946 3.4758C338.733 2.68883 338.733 1.37721 337.946 0.590231C337.159 -0.196744 335.847 -0.196744 335.06 0.590231L266.593 71.8115L239.049 49.5138C238.262 48.858 236.951 48.858 236.295 49.645L217.145 70.2375C216.358 71.0245 216.358 72.3361 217.276 73.1231L270.266 123.752Z" fill="white" stroke="#BBB4B5" stroke-width="0.5206" stroke-miterlimit="10"/>
<path d="M177.009 10.8211L62.6355 134.507C61.8486 135.294 61.9797 136.606 62.7667 137.393C63.1602 137.786 63.6848 137.918 64.2095 137.918C64.7341 137.918 65.2588 137.655 65.6523 137.262L180.026 13.5755L201.93 33.2499C205.34 36.3978 205.734 41.6443 202.848 45.3168L195.241 54.4982C194.585 55.4164 194.585 56.5968 195.503 57.3838C195.897 57.6461 196.29 57.9084 196.815 57.9084C197.339 57.9084 197.995 57.6461 198.389 57.1215L205.996 47.9401C210.324 42.6936 209.8 34.8238 204.684 30.2332L171.894 0.721601C171.107 -0.065374 169.795 0.0657889 169.008 0.852764C168.221 1.63974 168.353 2.95136 169.139 3.73834L177.009 10.8211Z" fill="white" stroke="#BBB4B5" stroke-width="0.5206" stroke-miterlimit="10"/>
<path d="M41.3875 66.8275C41.9122 66.8275 42.4368 66.5652 42.9615 66.1717L100.542 3.60718C101.329 2.8202 101.198 1.50858 100.411 0.721601C99.6237 -0.065374 98.312 0.0657889 97.5251 0.852764L39.9447 63.4173C39.1578 64.2042 39.2889 65.5159 40.0759 66.3028C40.4694 66.6963 40.8629 66.8275 41.3875 66.8275Z" fill="white" stroke="#BBB4B5" stroke-width="0.5206" stroke-miterlimit="10"/>
<path d="M15.5486 128.605L-1.10901 139.36C-2.02715 140.016 -2.28947 141.196 -1.76482 142.245C-1.37134 142.901 -0.715525 143.164 -0.0597124 143.164C0.333775 143.164 0.727261 143.032 0.989586 142.901L19.2212 131.097L34.8295 128.473L54.635 160.739C56.3402 163.625 55.422 167.56 52.5364 169.396L0.46494 201.793C-0.453198 202.449 -0.846685 203.629 -0.190873 204.679C0.202615 205.335 0.858426 205.597 1.51424 205.597C1.90773 205.597 2.30121 205.466 2.56354 205.335L54.635 172.937C59.4881 169.921 60.9308 163.625 58.0453 158.772L38.6332 126.244L62.6359 102.503C63.4229 101.716 63.4229 100.405 62.6359 99.6176L48.6016 85.0586C47.8146 84.2716 46.503 84.2716 45.716 85.0586C44.929 85.8456 44.929 87.1572 45.716 87.9442L58.4388 101.192L35.7476 123.62C35.4853 123.62 35.0918 123.752 34.8295 123.883C34.5672 124.014 34.3049 124.276 34.1737 124.539L19.6147 126.899L-0.977851 104.602C-1.76483 103.815 -3.07645 103.684 -3.86342 104.471C-4.6504 105.258 -4.78156 106.569 -3.99459 107.356L15.5486 128.605Z" fill="white" stroke="#BBB4B5" stroke-width="0.5206" stroke-miterlimit="10"/>
<path d="M266.725 74.5659L274.201 119.161" stroke="white" stroke-width="3.1236" stroke-miterlimit="10" stroke-linecap="round" stroke-linejoin="round"/>
<path d="M75.862 256.744L68.0137 263.1L74.6995 271.356L82.5478 265L75.862 256.744Z" fill="#E2E0E1"/>
<path d="M95.0399 259.066L87.5349 265.823L94.6435 273.718L102.148 266.96L95.0399 259.066Z" fill="#E2E0E1"/>
<path d="M115.51 227.721L106.055 236.234L110.97 241.692L120.424 233.18L115.51 227.721Z" fill="#E2E0E1"/>
<path d="M300.433 358.663L381.36 404.308V360.631L305.286 357.483L300.433 358.663Z" fill="#E2E0E1"/>
<path d="M336.634 252.028L340.438 247.175L367.851 264.62C367.851 264.62 369.818 260.16 370.343 260.292C370.867 260.423 388.181 270.26 388.181 270.26L385.426 281.015L336.634 252.028Z" fill="#E2E0E1"/>
<path d="M355.259 194.448L359.719 189.857L366.802 196.94L362.211 201.531L355.259 194.448Z" fill="#E2E0E1"/>
<path d="M327.715 297.279L327.322 316.56L340.307 317.347L339.651 334.66L308.303 334.267L307.254 352.761L384.64 356.302L381.885 335.972L350.275 335.185L350.931 317.478L364.966 318.003L365.097 297.935L327.715 297.279Z" fill="#E2E0E1"/>
<path d="M256.625 381.748L262.79 385.551L266.987 378.862L260.953 375.452L256.625 381.748Z" fill="#E2E0E1"/>
<path d="M283.645 367.582L278.398 377.157L283.645 380.305L288.76 370.73L283.645 367.582Z" fill="#E2E0E1"/>
<path d="M71.2928 355.647L80.4742 366.402L85.8518 361.418L76.8016 351.187L71.2928 355.647Z" fill="#E2E0E1"/>
<path d="M208.226 258.455L212.161 261.603L220.556 253.733L216.227 249.929L208.226 258.455Z" fill="#E2E0E1"/>
<path d="M312.895 239.436L341.75 214.122L346.21 218.057L335.323 227.238L337.16 231.435L322.863 243.765L312.895 239.436Z" fill="#E2E0E1"/>
<path d="M310.071 257.576H310.879V262.526H313.939V263.229H310.071V257.576ZM317.315 263.293C316.744 263.293 316.23 263.17 315.773 262.922C315.315 262.669 314.955 262.322 314.691 261.88C314.432 261.439 314.303 260.946 314.303 260.403C314.303 259.859 314.432 259.366 314.691 258.925C314.955 258.483 315.315 258.139 315.773 257.891C316.23 257.638 316.744 257.512 317.315 257.512C317.88 257.512 318.392 257.638 318.849 257.891C319.307 258.139 319.665 258.483 319.923 258.925C320.182 259.361 320.311 259.854 320.311 260.403C320.311 260.952 320.182 261.447 319.923 261.888C319.665 262.324 319.307 262.669 318.849 262.922C318.392 263.17 317.88 263.293 317.315 263.293ZM317.315 262.575C317.73 262.575 318.101 262.481 318.429 262.292C318.763 262.104 319.024 261.845 319.213 261.517C319.407 261.183 319.503 260.812 319.503 260.403C319.503 259.993 319.407 259.625 319.213 259.296C319.024 258.963 318.763 258.701 318.429 258.513C318.101 258.325 317.73 258.23 317.315 258.23C316.901 258.23 316.524 258.325 316.185 258.513C315.851 258.701 315.587 258.963 315.393 259.296C315.205 259.625 315.111 259.993 315.111 260.403C315.111 260.812 315.205 261.183 315.393 261.517C315.587 261.845 315.851 262.104 316.185 262.292C316.524 262.481 316.901 262.575 317.315 262.575ZM329.35 257.576L327.46 263.229H326.613L325.07 258.715L323.528 263.229H322.664L320.774 257.576H321.606L323.132 262.171L324.723 257.576H325.466L327.024 262.195L328.583 257.576H329.35ZM334.44 262.526V263.229H330.338V257.576H334.327V258.279H331.145V260.015H333.98V260.701H331.145V262.526H334.44ZM339.526 263.229L338.307 261.493C338.156 261.504 338.038 261.509 337.952 261.509H336.555V263.229H335.747V257.576H337.952C338.684 257.576 339.26 257.751 339.68 258.101C340.1 258.451 340.31 258.933 340.31 259.547C340.31 259.983 340.202 260.354 339.987 260.661C339.771 260.968 339.465 261.191 339.066 261.331L340.407 263.229H339.526ZM337.928 260.823C338.439 260.823 338.829 260.712 339.098 260.491C339.368 260.271 339.502 259.956 339.502 259.547C339.502 259.138 339.368 258.825 339.098 258.61C338.829 258.389 338.439 258.279 337.928 258.279H336.555V260.823H337.928ZM346.524 257.576L344.045 263.229H343.246L340.758 257.576H341.631L343.665 262.22L345.716 257.576H346.524ZM350.665 261.816H347.661L347.039 263.229H346.207L348.767 257.576H349.567L352.135 263.229H351.287L350.665 261.816ZM350.382 261.17L349.163 258.4L347.944 261.17H350.382ZM352.978 257.576H353.785V263.229H352.978V257.576ZM355.477 257.576H356.285V262.526H359.345V263.229H355.477V257.576ZM361.864 263.293C361.439 263.293 361.027 263.229 360.629 263.1C360.236 262.965 359.926 262.793 359.7 262.583L359.999 261.953C360.214 262.147 360.489 262.306 360.822 262.429C361.162 262.548 361.509 262.607 361.864 262.607C362.332 262.607 362.682 262.529 362.914 262.373C363.145 262.211 363.261 261.999 363.261 261.735C363.261 261.541 363.196 261.385 363.067 261.267C362.943 261.143 362.787 261.049 362.599 260.984C362.416 260.919 362.155 260.847 361.816 260.766C361.39 260.664 361.046 260.561 360.782 260.459C360.524 260.357 360.3 260.201 360.112 259.991C359.929 259.775 359.837 259.487 359.837 259.127C359.837 258.825 359.915 258.553 360.071 258.311C360.233 258.069 360.475 257.875 360.798 257.73C361.121 257.584 361.522 257.512 362.001 257.512C362.335 257.512 362.664 257.555 362.987 257.641C363.31 257.727 363.587 257.851 363.818 258.012L363.552 258.658C363.315 258.508 363.062 258.395 362.793 258.319C362.524 258.239 362.26 258.198 362.001 258.198C361.544 258.198 361.199 258.282 360.968 258.448C360.742 258.615 360.629 258.831 360.629 259.094C360.629 259.288 360.693 259.447 360.822 259.571C360.952 259.689 361.11 259.784 361.299 259.854C361.493 259.918 361.754 259.988 362.082 260.063C362.507 260.166 362.849 260.268 363.108 260.37C363.366 260.473 363.587 260.629 363.77 260.839C363.958 261.049 364.052 261.331 364.052 261.687C364.052 261.983 363.972 262.254 363.81 262.502C363.649 262.744 363.404 262.938 363.075 263.084C362.747 263.223 362.343 263.293 361.864 263.293ZM369.035 260.298C369.364 260.389 369.622 260.556 369.811 260.798C369.999 261.035 370.093 261.337 370.093 261.703C370.093 262.193 369.908 262.569 369.536 262.833C369.17 263.097 368.634 263.229 367.929 263.229H365.232V257.576H367.768C368.414 257.576 368.912 257.706 369.262 257.964C369.617 258.222 369.795 258.58 369.795 259.038C369.795 259.334 369.725 259.59 369.585 259.805C369.45 260.02 369.267 260.185 369.035 260.298ZM366.04 258.23V260.039H367.695C368.11 260.039 368.427 259.964 368.648 259.813C368.874 259.657 368.987 259.431 368.987 259.135C368.987 258.839 368.874 258.615 368.648 258.465C368.427 258.309 368.11 258.23 367.695 258.23H366.04ZM367.897 262.575C368.354 262.575 368.699 262.499 368.931 262.349C369.162 262.198 369.278 261.961 369.278 261.638C369.278 261.008 368.817 260.693 367.897 260.693H366.04V262.575H367.897ZM373.685 263.293C372.932 263.293 372.345 263.078 371.925 262.647C371.505 262.217 371.295 261.598 371.295 260.79V257.576H372.103V260.758C372.103 261.969 372.633 262.575 373.693 262.575C374.21 262.575 374.606 262.427 374.88 262.131C375.155 261.829 375.292 261.372 375.292 260.758V257.576H376.076V260.79C376.076 261.603 375.866 262.225 375.446 262.656C375.026 263.081 374.439 263.293 373.685 263.293ZM381.51 263.229L380.291 261.493C380.14 261.504 380.022 261.509 379.936 261.509H378.539V263.229H377.731V257.576H379.936C380.668 257.576 381.244 257.751 381.664 258.101C382.083 258.451 382.293 258.933 382.293 259.547C382.293 259.983 382.186 260.354 381.97 260.661C381.755 260.968 381.448 261.191 381.05 261.331L382.39 263.229H381.51ZM379.911 260.823C380.423 260.823 380.813 260.712 381.082 260.491C381.351 260.271 381.486 259.956 381.486 259.547C381.486 259.138 381.351 258.825 381.082 258.61C380.813 258.389 380.423 258.279 379.911 258.279H378.539V260.823H379.911ZM387.514 260.37H388.29V262.575C388.01 262.806 387.684 262.984 387.313 263.108C386.941 263.232 386.553 263.293 386.15 263.293C385.579 263.293 385.065 263.17 384.607 262.922C384.15 262.669 383.789 262.324 383.525 261.888C383.267 261.447 383.138 260.952 383.138 260.403C383.138 259.854 383.267 259.358 383.525 258.917C383.789 258.475 384.15 258.131 384.607 257.883C385.07 257.636 385.59 257.512 386.166 257.512C386.618 257.512 387.027 257.587 387.393 257.738C387.765 257.883 388.08 258.099 388.338 258.384L387.837 258.885C387.385 258.448 386.839 258.23 386.198 258.23C385.768 258.23 385.38 258.325 385.035 258.513C384.696 258.696 384.43 258.955 384.236 259.288C384.042 259.617 383.945 259.988 383.945 260.403C383.945 260.812 384.042 261.183 384.236 261.517C384.43 261.845 384.696 262.104 385.035 262.292C385.38 262.481 385.765 262.575 386.19 262.575C386.696 262.575 387.138 262.454 387.514 262.211V260.37Z" fill="#606161"/>
<path d="M152.543 392.146C152.117 392.146 151.706 392.081 151.307 391.952C150.914 391.817 150.605 391.645 150.379 391.435L150.677 390.805C150.893 390.999 151.167 391.158 151.501 391.282C151.84 391.4 152.187 391.459 152.543 391.459C153.011 391.459 153.361 391.381 153.592 391.225C153.824 391.064 153.94 390.851 153.94 390.587C153.94 390.393 153.875 390.237 153.746 390.119C153.622 389.995 153.466 389.901 153.278 389.836C153.095 389.772 152.833 389.699 152.494 389.618C152.069 389.516 151.724 389.414 151.461 389.311C151.202 389.209 150.979 389.053 150.79 388.843C150.607 388.628 150.516 388.34 150.516 387.979C150.516 387.677 150.594 387.406 150.75 387.163C150.912 386.921 151.154 386.727 151.477 386.582C151.8 386.437 152.201 386.364 152.68 386.364C153.014 386.364 153.342 386.407 153.665 386.493C153.988 386.579 154.265 386.703 154.497 386.865L154.23 387.511C153.994 387.36 153.741 387.247 153.471 387.171C153.202 387.091 152.938 387.05 152.68 387.05C152.222 387.05 151.878 387.134 151.646 387.301C151.42 387.468 151.307 387.683 151.307 387.947C151.307 388.14 151.372 388.299 151.501 388.423C151.63 388.542 151.789 388.636 151.977 388.706C152.171 388.77 152.432 388.84 152.761 388.916C153.186 389.018 153.528 389.12 153.786 389.223C154.045 389.325 154.265 389.481 154.448 389.691C154.637 389.901 154.731 390.183 154.731 390.539C154.731 390.835 154.65 391.107 154.489 391.354C154.327 391.597 154.082 391.79 153.754 391.936C153.426 392.076 153.022 392.146 152.543 392.146ZM156.954 387.131H155.016V386.429H159.692V387.131H157.754V392.081H156.954V387.131ZM164.35 392.081L163.131 390.345C162.98 390.356 162.862 390.361 162.776 390.361H161.379V392.081H160.571V386.429H162.776C163.508 386.429 164.084 386.604 164.504 386.953C164.924 387.303 165.134 387.785 165.134 388.399C165.134 388.835 165.026 389.206 164.811 389.513C164.595 389.82 164.288 390.043 163.89 390.183L165.231 392.081H164.35ZM162.751 389.675C163.263 389.675 163.653 389.564 163.922 389.344C164.192 389.123 164.326 388.808 164.326 388.399C164.326 387.99 164.192 387.677 163.922 387.462C163.653 387.241 163.263 387.131 162.751 387.131H161.379V389.675H162.751ZM170.54 391.379V392.081H166.438V386.429H170.427V387.131H167.246V388.867H170.08V389.554H167.246V391.379H170.54ZM175.95 391.379V392.081H171.848V386.429H175.837V387.131H172.655V388.867H175.49V389.554H172.655V391.379H175.95ZM178.38 387.131H176.442V386.429H181.117V387.131H179.179V392.081H178.38V387.131Z" fill="#606161"/>
<path d="M133.949 112.306C133.195 112.306 132.608 112.091 132.189 111.66C131.769 111.229 131.559 110.61 131.559 109.803V106.589H132.366V109.77C132.366 110.982 132.896 111.587 133.957 111.587C134.474 111.587 134.869 111.439 135.144 111.143C135.419 110.842 135.556 110.384 135.556 109.77V106.589H136.339V109.803C136.339 110.616 136.129 111.237 135.709 111.668C135.289 112.093 134.703 112.306 133.949 112.306ZM142.856 106.589V112.241H142.194L138.802 108.026V112.241H137.995V106.589H138.657L142.048 110.804V106.589H142.856ZM144.548 106.589H145.355V112.241H144.548V106.589ZM149.599 112.306C149.029 112.306 148.514 112.182 148.057 111.934C147.599 111.681 147.239 111.334 146.975 110.893C146.716 110.451 146.587 109.959 146.587 109.415C146.587 108.871 146.716 108.379 146.975 107.937C147.239 107.496 147.599 107.151 148.057 106.904C148.514 106.651 149.029 106.524 149.599 106.524C150.164 106.524 150.676 106.651 151.133 106.904C151.591 107.151 151.949 107.496 152.207 107.937C152.466 108.373 152.595 108.866 152.595 109.415C152.595 109.964 152.466 110.459 152.207 110.901C151.949 111.337 151.591 111.681 151.133 111.934C150.676 112.182 150.164 112.306 149.599 112.306ZM149.599 111.587C150.014 111.587 150.385 111.493 150.713 111.305C151.047 111.116 151.308 110.858 151.497 110.529C151.691 110.196 151.787 109.824 151.787 109.415C151.787 109.006 151.691 108.637 151.497 108.309C151.308 107.975 151.047 107.714 150.713 107.526C150.385 107.337 150.014 107.243 149.599 107.243C149.185 107.243 148.808 107.337 148.469 107.526C148.135 107.714 147.871 107.975 147.677 108.309C147.489 108.637 147.395 109.006 147.395 109.415C147.395 109.824 147.489 110.196 147.677 110.529C147.871 110.858 148.135 111.116 148.469 111.305C148.808 111.493 149.185 111.587 149.599 111.587ZM158.69 106.589V112.241H158.028L154.637 108.026V112.241H153.829V106.589H154.491L157.883 110.804V106.589H158.69Z" fill="#606161"/>
<path d="M232.456 219.303C232.411 219.515 232.339 219.713 232.242 219.897C232.141 220.08 232.035 220.217 231.924 220.309L231.594 220.034C231.7 219.938 231.795 219.813 231.878 219.661C231.962 219.508 232.022 219.349 232.057 219.182C232.145 218.772 232.072 218.541 231.837 218.491C231.759 218.474 231.691 218.489 231.634 218.534C231.576 218.58 231.528 218.643 231.491 218.724C231.45 218.8 231.401 218.912 231.342 219.06C231.265 219.262 231.191 219.425 231.12 219.549C231.05 219.671 230.954 219.768 230.832 219.841C230.711 219.914 230.559 219.931 230.377 219.892C230.142 219.841 229.976 219.703 229.877 219.478C229.776 219.252 229.76 218.974 229.831 218.645C229.867 218.472 229.926 218.304 230.005 218.14C230.084 217.976 230.172 217.847 230.267 217.751L230.596 218.031C230.414 218.214 230.292 218.448 230.23 218.735C230.188 218.934 230.188 219.093 230.231 219.211C230.274 219.329 230.349 219.4 230.457 219.423C230.541 219.441 230.614 219.426 230.676 219.378C230.737 219.33 230.789 219.265 230.829 219.186C230.871 219.102 230.923 218.986 230.986 218.836C231.067 218.635 231.142 218.475 231.211 218.357C231.278 218.235 231.37 218.139 231.488 218.069C231.605 217.998 231.752 217.982 231.928 218.02C232.162 218.07 232.328 218.211 232.425 218.443C232.52 218.671 232.53 218.958 232.456 219.303ZM232.952 216.101C232.996 216.182 233.023 216.277 233.034 216.385C233.042 216.492 233.034 216.6 233.011 216.707C232.955 216.968 232.842 217.155 232.671 217.269C232.5 217.382 232.285 217.411 232.024 217.355L230.601 217.051L230.507 217.491L230.121 217.408L230.215 216.968L229.648 216.847L229.748 216.377L230.315 216.499L230.474 215.755L230.86 215.838L230.701 216.581L232.105 216.881C232.245 216.911 232.36 216.9 232.449 216.848C232.54 216.792 232.599 216.699 232.627 216.569C232.657 216.425 232.643 216.294 232.583 216.176L232.952 216.101ZM231.165 214.655C231.032 214.542 230.944 214.397 230.9 214.22C230.856 214.044 230.858 213.841 230.907 213.613L231.362 213.71C231.353 213.736 231.343 213.771 231.334 213.817C231.279 214.071 231.313 214.288 231.435 214.468C231.554 214.643 231.754 214.761 232.034 214.821L233.325 215.097L233.225 215.566L230.633 215.012L230.729 214.562L231.165 214.655ZM232.861 211.002C232.897 211.01 232.944 211.023 233.001 211.042L232.551 213.145C232.786 213.164 232.991 213.104 233.168 212.965C233.342 212.821 233.456 212.622 233.51 212.368C233.576 212.058 233.525 211.787 233.357 211.553L233.716 211.359C233.828 211.505 233.9 211.674 233.935 211.866C233.969 212.054 233.964 212.255 233.918 212.47C233.859 212.744 233.752 212.975 233.596 213.163C233.436 213.351 233.243 213.482 233.016 213.556C232.789 213.627 232.549 213.635 232.294 213.581C232.043 213.527 231.829 213.423 231.65 213.269C231.473 213.112 231.349 212.923 231.28 212.704C231.209 212.481 231.2 212.245 231.253 211.998C231.306 211.75 231.41 211.542 231.565 211.374C231.718 211.202 231.906 211.084 232.132 211.02C232.357 210.952 232.601 210.946 232.861 211.002ZM231.649 212.082C231.6 212.307 231.628 212.511 231.733 212.693C231.837 212.873 231.998 212.999 232.214 213.072L232.57 211.41C232.346 211.389 232.149 211.441 231.979 211.565C231.807 211.685 231.697 211.857 231.649 212.082ZM233.502 208.008C233.538 208.016 233.584 208.029 233.642 208.048L233.192 210.151C233.426 210.17 233.632 210.11 233.808 209.971C233.982 209.827 234.096 209.628 234.151 209.374C234.217 209.064 234.166 208.793 233.998 208.559L234.356 208.365C234.468 208.511 234.541 208.68 234.575 208.872C234.61 209.06 234.604 209.261 234.558 209.477C234.5 209.75 234.392 209.981 234.236 210.17C234.077 210.357 233.883 210.488 233.656 210.562C233.43 210.633 233.189 210.641 232.935 210.587C232.684 210.533 232.469 210.429 232.291 210.275C232.113 210.118 231.99 209.929 231.921 209.71C231.849 209.487 231.84 209.251 231.893 209.004C231.946 208.756 232.05 208.548 232.205 208.38C232.358 208.208 232.547 208.09 232.772 208.026C232.998 207.958 233.241 207.952 233.502 208.008ZM232.289 209.088C232.241 209.313 232.269 209.517 232.373 209.699C232.478 209.879 232.638 210.005 232.854 210.079L233.21 208.416C232.986 208.396 232.789 208.447 232.62 208.571C232.447 208.691 232.337 208.863 232.289 209.088ZM235.082 206.141C235.127 206.222 235.154 206.316 235.165 206.424C235.173 206.532 235.165 206.639 235.142 206.747C235.086 207.008 234.973 207.195 234.802 207.308C234.631 207.422 234.415 207.45 234.155 207.395L232.732 207.09L232.638 207.53L232.251 207.448L232.346 207.008L231.778 206.886L231.879 206.417L232.446 206.538L232.605 205.795L232.991 205.878L232.832 206.621L234.236 206.921C234.376 206.951 234.491 206.94 234.58 206.887C234.671 206.832 234.73 206.739 234.758 206.608C234.788 206.465 234.774 206.334 234.714 206.215L235.082 206.141ZM233.317 202.349C233.387 202.02 233.539 201.78 233.772 201.629C234.003 201.474 234.303 201.436 234.671 201.514L236.163 201.833L236.062 202.303L234.625 201.995C234.374 201.942 234.172 201.961 234.019 202.055C233.866 202.148 233.765 202.307 233.717 202.532C233.663 202.787 233.695 203.003 233.813 203.182C233.929 203.36 234.125 203.479 234.402 203.538L235.737 203.823L235.636 204.293L233.045 203.738L233.141 203.289L233.532 203.372C233.419 203.249 233.343 203.1 233.306 202.925C233.269 202.747 233.273 202.555 233.317 202.349ZM233.934 199.461C234.011 199.103 234.158 198.848 234.374 198.696C234.591 198.542 234.874 198.502 235.223 198.576L236.788 198.911L236.692 199.356L236.35 199.283C236.454 199.387 236.523 199.519 236.557 199.68C236.588 199.836 236.582 200.014 236.54 200.213C236.478 200.503 236.358 200.721 236.18 200.867C236.003 201.01 235.8 201.057 235.572 201.008C235.344 200.959 235.179 200.837 235.078 200.642C234.973 200.445 234.96 200.166 235.037 199.805L235.196 199.061L235.103 199.042C234.901 198.998 234.734 199.024 234.601 199.118C234.468 199.213 234.377 199.374 234.329 199.602C234.296 199.755 234.29 199.911 234.311 200.069C234.328 200.226 234.369 200.364 234.432 200.483L234.038 200.603C233.959 200.447 233.911 200.269 233.896 200.072C233.877 199.873 233.89 199.67 233.934 199.461ZM236.195 200.057C236.233 199.878 236.227 199.715 236.177 199.568C236.123 199.42 236.029 199.301 235.895 199.211L235.533 199.134L235.379 199.857C235.293 200.255 235.385 200.482 235.652 200.54C235.782 200.567 235.896 200.539 235.992 200.454C236.089 200.369 236.156 200.237 236.195 200.057ZM235.051 194.241C235.121 193.915 235.27 193.678 235.5 193.529C235.73 193.377 236.031 193.341 236.403 193.421L237.894 193.74L237.794 194.209L236.356 193.902C236.105 193.848 235.903 193.866 235.751 193.956C235.6 194.043 235.501 194.194 235.455 194.409C235.404 194.647 235.438 194.852 235.558 195.025C235.675 195.196 235.872 195.312 236.149 195.371L237.484 195.656L237.384 196.126L235.946 195.818C235.695 195.765 235.493 195.783 235.341 195.873C235.19 195.96 235.091 196.111 235.045 196.326C234.994 196.564 235.028 196.769 235.148 196.941C235.265 197.113 235.462 197.228 235.739 197.287L237.074 197.573L236.974 198.042L234.382 197.488L234.478 197.038L234.865 197.121C234.751 196.998 234.677 196.852 234.641 196.684C234.602 196.516 234.603 196.334 234.645 196.138C234.689 195.936 234.768 195.766 234.883 195.626C234.998 195.487 235.142 195.392 235.317 195.341C235.188 195.211 235.099 195.051 235.052 194.86C235.005 194.666 235.004 194.459 235.051 194.241ZM237.302 190.246C237.338 190.253 237.384 190.267 237.442 190.286L236.992 192.388C237.226 192.408 237.432 192.348 237.608 192.208C237.782 192.065 237.896 191.866 237.95 191.611C238.017 191.302 237.966 191.03 237.798 190.796L238.156 190.602C238.268 190.749 238.341 190.918 238.375 191.109C238.41 191.297 238.404 191.499 238.358 191.714C238.299 191.988 238.192 192.219 238.036 192.407C237.876 192.594 237.683 192.725 237.456 192.799C237.229 192.87 236.989 192.878 236.735 192.824C236.484 192.77 236.269 192.666 236.091 192.512C235.913 192.355 235.79 192.167 235.721 191.947C235.649 191.724 235.64 191.489 235.693 191.241C235.746 190.993 235.85 190.785 236.005 190.618C236.158 190.446 236.347 190.328 236.572 190.263C236.798 190.196 237.041 190.19 237.302 190.246ZM236.089 191.326C236.041 191.551 236.069 191.754 236.173 191.937C236.278 192.116 236.438 192.242 236.654 192.316L237.01 190.654C236.786 190.633 236.589 190.685 236.419 190.808C236.247 190.928 236.137 191.101 236.089 191.326Z" fill="#818181"/>
<path d="M264.632 334.083C264.538 334.278 264.423 334.454 264.286 334.61C264.145 334.765 264.01 334.874 263.88 334.938L263.623 334.594C263.749 334.524 263.87 334.425 263.987 334.296C264.104 334.167 264.199 334.026 264.272 333.873C264.453 333.494 264.435 333.252 264.218 333.149C264.146 333.115 264.077 333.113 264.01 333.144C263.944 333.175 263.883 333.225 263.828 333.295C263.771 333.36 263.696 333.458 263.605 333.588C263.483 333.766 263.373 333.907 263.275 334.012C263.178 334.114 263.063 334.186 262.928 334.228C262.793 334.271 262.641 334.252 262.473 334.172C262.256 334.069 262.126 333.896 262.083 333.654C262.037 333.41 262.086 333.136 262.231 332.832C262.307 332.673 262.403 332.523 262.518 332.382C262.633 332.241 262.748 332.136 262.863 332.065L263.118 332.413C262.898 332.549 262.725 332.749 262.599 333.013C262.512 333.197 262.475 333.351 262.489 333.476C262.503 333.601 262.56 333.687 262.659 333.735C262.738 333.772 262.812 333.774 262.883 333.742C262.954 333.709 263.019 333.659 263.077 333.591C263.137 333.519 263.215 333.418 263.311 333.287C263.436 333.11 263.546 332.972 263.641 332.873C263.734 332.77 263.846 332.698 263.977 332.657C264.107 332.616 264.254 332.634 264.416 332.712C264.633 332.815 264.761 332.991 264.802 333.239C264.84 333.483 264.784 333.764 264.632 334.083ZM265.858 331.084C265.882 331.173 265.886 331.271 265.872 331.379C265.854 331.485 265.822 331.588 265.775 331.687C265.66 331.928 265.506 332.083 265.314 332.154C265.121 332.225 264.905 332.202 264.664 332.088L263.351 331.461L263.157 331.867L262.801 331.697L262.994 331.291L262.471 331.041L262.678 330.608L263.201 330.858L263.528 330.172L263.885 330.342L263.558 331.028L264.853 331.646C264.982 331.708 265.096 331.723 265.196 331.693C265.296 331.66 265.375 331.583 265.433 331.463C265.496 331.331 265.512 331.2 265.482 331.071L265.858 331.084ZM264.455 329.262C264.353 329.121 264.301 328.959 264.299 328.778C264.297 328.596 264.346 328.399 264.447 328.189L264.866 328.389C264.852 328.412 264.835 328.444 264.814 328.486C264.703 328.721 264.685 328.94 264.762 329.142C264.837 329.341 265.004 329.502 265.263 329.625L266.454 330.194L266.247 330.627L263.856 329.486L264.054 329.071L264.455 329.262ZM266.954 326.103C266.987 326.119 267.029 326.143 267.081 326.175L266.155 328.115C266.378 328.189 266.592 328.178 266.796 328.083C266.999 327.984 267.156 327.817 267.268 327.582C267.404 327.297 267.418 327.021 267.308 326.754L267.702 326.649C267.777 326.817 267.809 326.998 267.797 327.192C267.787 327.383 267.735 327.578 267.64 327.777C267.52 328.03 267.362 328.229 267.166 328.376C266.967 328.521 266.749 328.604 266.511 328.623C266.274 328.639 266.038 328.591 265.804 328.479C265.572 328.369 265.387 328.218 265.25 328.027C265.113 327.832 265.037 327.621 265.021 327.391C265.003 327.158 265.049 326.926 265.158 326.698C265.267 326.469 265.417 326.291 265.607 326.164C265.795 326.032 266.006 325.961 266.24 325.951C266.475 325.938 266.713 325.988 266.954 326.103ZM265.524 326.872C265.425 327.08 265.405 327.284 265.463 327.486C265.524 327.685 265.65 327.845 265.844 327.967L266.576 326.432C266.363 326.36 266.159 326.365 265.965 326.446C265.77 326.522 265.623 326.665 265.524 326.872ZM268.272 323.34C268.306 323.356 268.348 323.38 268.399 323.412L267.473 325.352C267.697 325.425 267.91 325.415 268.114 325.32C268.317 325.221 268.474 325.054 268.586 324.819C268.722 324.534 268.736 324.258 268.627 323.991L269.021 323.886C269.095 324.054 269.127 324.235 269.116 324.429C269.106 324.62 269.053 324.815 268.959 325.014C268.838 325.266 268.68 325.466 268.484 325.613C268.286 325.758 268.067 325.841 267.829 325.86C267.592 325.876 267.357 325.828 267.122 325.716C266.89 325.606 266.706 325.455 266.568 325.264C266.432 325.069 266.356 324.858 266.339 324.628C266.322 324.395 266.367 324.163 266.476 323.935C266.586 323.706 266.735 323.528 266.925 323.401C267.113 323.269 267.325 323.198 267.558 323.188C267.794 323.175 268.032 323.225 268.272 323.34ZM266.842 324.109C266.743 324.317 266.723 324.521 266.782 324.723C266.842 324.922 266.969 325.082 267.162 325.204L267.894 323.669C267.681 323.597 267.477 323.602 267.284 323.683C267.088 323.759 266.941 323.902 266.842 324.109ZM270.243 321.891C270.267 321.98 270.272 322.079 270.258 322.186C270.24 322.292 270.208 322.395 270.161 322.494C270.046 322.735 269.892 322.891 269.7 322.961C269.507 323.032 269.291 323.01 269.05 322.895L267.737 322.269L267.543 322.675L267.186 322.505L267.38 322.099L266.857 321.849L267.063 321.416L267.587 321.665L267.914 320.979L268.271 321.15L267.943 321.835L269.238 322.453C269.368 322.515 269.482 322.531 269.582 322.501C269.682 322.467 269.761 322.391 269.819 322.27C269.882 322.138 269.898 322.007 269.867 321.878L270.243 321.891ZM269.406 317.794C269.551 317.49 269.755 317.291 270.017 317.199C270.278 317.101 270.578 317.134 270.918 317.296L272.294 317.953L272.088 318.386L270.761 317.753C270.529 317.642 270.328 317.615 270.158 317.67C269.987 317.725 269.853 317.857 269.754 318.064C269.642 318.299 269.623 318.517 269.696 318.719C269.767 318.919 269.93 319.08 270.186 319.202L271.418 319.789L271.211 320.222L268.82 319.081L269.018 318.666L269.379 318.838C269.297 318.692 269.258 318.53 269.262 318.351C269.268 318.169 269.316 317.983 269.406 317.794ZM270.678 315.128C270.836 314.797 271.038 314.583 271.284 314.486C271.531 314.386 271.815 314.413 272.137 314.567L273.581 315.256L273.385 315.666L273.069 315.516C273.146 315.641 273.182 315.786 273.178 315.95C273.172 316.109 273.125 316.281 273.038 316.464C272.91 316.732 272.743 316.916 272.536 317.017C272.33 317.115 272.122 317.114 271.912 317.013C271.701 316.913 271.569 316.755 271.516 316.542C271.46 316.327 271.512 316.052 271.671 315.718L271.998 315.032L271.912 314.991C271.726 314.902 271.557 314.888 271.406 314.949C271.255 315.01 271.13 315.146 271.029 315.357C270.962 315.498 270.92 315.648 270.903 315.806C270.884 315.963 270.891 316.107 270.925 316.237L270.514 316.263C270.473 316.092 270.468 315.909 270.499 315.713C270.527 315.516 270.586 315.321 270.678 315.128ZM272.738 316.233C272.817 316.067 272.849 315.907 272.834 315.753C272.817 315.596 272.753 315.459 272.643 315.34L272.309 315.181L271.991 315.849C271.816 316.216 271.852 316.458 272.098 316.576C272.219 316.633 272.336 316.632 272.449 316.572C272.563 316.511 272.659 316.398 272.738 316.233ZM272.977 310.31C273.12 310.01 273.321 309.814 273.579 309.722C273.838 309.628 274.139 309.663 274.482 309.826L275.858 310.483L275.652 310.916L274.325 310.283C274.093 310.173 273.893 310.144 273.724 310.196C273.556 310.245 273.425 310.369 273.33 310.568C273.226 310.787 273.212 310.995 273.288 311.19C273.362 311.384 273.527 311.542 273.782 311.664L275.014 312.252L274.808 312.685L273.481 312.052C273.249 311.942 273.049 311.913 272.88 311.965C272.712 312.014 272.581 312.138 272.487 312.337C272.382 312.556 272.368 312.764 272.444 312.959C272.518 313.153 272.683 313.311 272.938 313.433L274.17 314.021L273.964 314.454L271.572 313.313L271.77 312.898L272.127 313.068C272.045 312.922 272.006 312.763 272.01 312.591C272.012 312.419 272.055 312.242 272.141 312.061C272.23 311.875 272.347 311.727 272.491 311.619C272.635 311.51 272.798 311.451 272.98 311.442C272.885 311.286 272.836 311.109 272.834 310.912C272.833 310.713 272.881 310.512 272.977 310.31ZM276.094 306.947C276.127 306.963 276.169 306.987 276.22 307.019L275.295 308.959C275.518 309.032 275.732 309.022 275.936 308.927C276.138 308.828 276.295 308.661 276.407 308.426C276.544 308.141 276.557 307.864 276.448 307.598L276.842 307.492C276.917 307.661 276.948 307.842 276.937 308.036C276.927 308.227 276.875 308.422 276.78 308.621C276.659 308.873 276.501 309.073 276.306 309.22C276.107 309.365 275.889 309.447 275.651 309.467C275.414 309.483 275.178 309.435 274.944 309.323C274.712 309.213 274.527 309.062 274.39 308.871C274.253 308.676 274.177 308.465 274.161 308.235C274.143 308.002 274.189 307.77 274.298 307.542C274.407 307.313 274.556 307.135 274.746 307.008C274.935 306.876 275.146 306.805 275.38 306.795C275.615 306.782 275.853 306.832 276.094 306.947ZM274.663 307.716C274.564 307.924 274.544 308.128 274.603 308.33C274.663 308.529 274.79 308.689 274.983 308.81L275.715 307.276C275.502 307.204 275.299 307.209 275.105 307.29C274.91 307.366 274.762 307.509 274.663 307.716Z" fill="#818181"/>
<path d="M97.9241 324.763C97.7204 324.69 97.5342 324.592 97.3654 324.471C97.1978 324.346 97.076 324.222 97 324.099L97.3175 323.81C97.3988 323.928 97.5093 324.039 97.649 324.143C97.7887 324.246 97.9385 324.327 98.0983 324.385C98.4933 324.528 98.7316 324.487 98.8133 324.261C98.8405 324.186 98.8354 324.117 98.798 324.053C98.7606 323.99 98.7046 323.934 98.6299 323.886C98.5595 323.836 98.4551 323.771 98.3169 323.693C98.1277 323.589 97.9762 323.493 97.8624 323.406C97.7518 323.32 97.6686 323.212 97.6129 323.082C97.5572 322.952 97.5611 322.799 97.6246 322.624C97.7063 322.398 97.8656 322.252 98.1024 322.185C98.3404 322.115 98.6177 322.138 98.9343 322.252C99.1004 322.312 99.2591 322.393 99.4105 322.494C99.5619 322.595 99.6783 322.699 99.76 322.806L99.4378 323.094C99.2818 322.888 99.0658 322.736 98.79 322.636C98.5988 322.567 98.4417 322.545 98.3187 322.572C98.1957 322.598 98.1155 322.663 98.0781 322.766C98.0486 322.848 98.0535 322.922 98.0929 322.99C98.1323 323.057 98.1888 323.117 98.2623 323.168C98.339 323.221 98.4475 323.288 98.5877 323.371C98.7758 323.478 98.9236 323.574 99.0311 323.659C99.1429 323.742 99.2256 323.847 99.2793 323.972C99.3331 324.098 99.3293 324.246 99.268 324.415C99.1863 324.641 99.0239 324.786 98.7808 324.85C98.5419 324.912 98.2564 324.884 97.9241 324.763ZM101.029 325.69C100.943 325.723 100.845 325.737 100.737 325.734C100.629 325.727 100.524 325.704 100.421 325.667C100.17 325.576 99.9999 325.439 99.9107 325.254C99.8216 325.069 99.8224 324.851 99.9132 324.601L100.408 323.232L99.9854 323.079L100.12 322.708L100.543 322.861L100.74 322.316L101.192 322.479L100.994 323.024L101.709 323.283L101.574 323.655L100.86 323.396L100.371 324.745C100.323 324.88 100.318 324.995 100.358 325.091C100.401 325.188 100.485 325.26 100.61 325.305C100.748 325.355 100.88 325.358 101.005 325.315L101.029 325.69ZM102.705 324.117C102.835 324.001 102.991 323.933 103.172 323.914C103.353 323.894 103.553 323.924 103.772 324.004L103.614 324.441C103.59 324.429 103.556 324.415 103.512 324.399C103.268 324.31 103.048 324.314 102.854 324.41C102.664 324.505 102.52 324.686 102.422 324.956L101.973 326.197L101.522 326.034L102.424 323.542L102.856 323.699L102.705 324.117ZM106.093 326.295C106.081 326.33 106.061 326.374 106.034 326.428L104.013 325.696C103.961 325.926 103.993 326.138 104.107 326.332C104.226 326.523 104.407 326.663 104.651 326.752C104.949 326.86 105.225 326.846 105.48 326.711L105.623 327.093C105.463 327.184 105.286 327.233 105.091 327.241C104.9 327.25 104.701 327.217 104.494 327.142C104.231 327.046 104.017 326.909 103.852 326.728C103.688 326.545 103.584 326.336 103.542 326.1C103.503 325.866 103.527 325.627 103.616 325.383C103.703 325.141 103.835 324.943 104.012 324.787C104.192 324.632 104.396 324.536 104.622 324.497C104.853 324.457 105.088 324.48 105.326 324.566C105.564 324.652 105.756 324.784 105.901 324.96C106.05 325.135 106.142 325.338 106.175 325.57C106.211 325.803 106.184 326.045 106.093 326.295ZM105.188 324.947C104.972 324.868 104.766 324.868 104.571 324.947C104.379 325.026 104.232 325.168 104.13 325.372L105.729 325.951C105.779 325.732 105.755 325.53 105.655 325.345C105.56 325.158 105.404 325.025 105.188 324.947ZM108.972 327.338C108.959 327.372 108.94 327.416 108.913 327.47L106.891 326.739C106.84 326.968 106.872 327.18 106.986 327.374C107.104 327.565 107.286 327.706 107.53 327.794C107.828 327.902 108.104 327.888 108.358 327.754L108.502 328.135C108.342 328.226 108.164 328.275 107.97 328.283C107.779 328.292 107.58 328.259 107.373 328.184C107.11 328.089 106.896 327.951 106.73 327.77C106.566 327.587 106.463 327.378 106.421 327.143C106.381 326.908 106.406 326.669 106.494 326.425C106.582 326.183 106.714 325.985 106.891 325.829C107.071 325.675 107.274 325.578 107.501 325.539C107.732 325.499 107.966 325.522 108.205 325.608C108.443 325.694 108.635 325.826 108.78 326.002C108.929 326.177 109.02 326.38 109.054 326.612C109.09 326.845 109.063 327.087 108.972 327.338ZM108.067 325.989C107.85 325.911 107.645 325.911 107.45 325.989C107.258 326.068 107.111 326.21 107.009 326.414L108.607 326.993C108.658 326.774 108.634 326.572 108.534 326.387C108.439 326.2 108.283 326.067 108.067 325.989ZM110.606 329.158C110.52 329.19 110.423 329.205 110.314 329.201C110.207 329.194 110.101 329.172 109.998 329.134C109.747 329.043 109.577 328.906 109.488 328.721C109.399 328.536 109.4 328.319 109.491 328.068L109.986 326.7L109.563 326.546L109.697 326.175L110.12 326.328L110.318 325.783L110.769 325.946L110.572 326.492L111.286 326.75L111.152 327.122L110.437 326.863L109.949 328.212C109.9 328.347 109.896 328.462 109.935 328.558C109.978 328.655 110.062 328.727 110.188 328.772C110.325 328.822 110.457 328.825 110.583 328.782L110.606 329.158ZM114.603 327.924C114.92 328.039 115.137 328.222 115.255 328.474C115.377 328.724 115.374 329.026 115.246 329.38L114.727 330.814L114.275 330.651L114.776 329.268C114.863 329.027 114.871 328.824 114.799 328.66C114.728 328.496 114.584 328.375 114.367 328.296C114.123 328.208 113.904 328.21 113.711 328.303C113.519 328.393 113.374 328.571 113.278 328.838L112.813 330.121L112.362 329.958L113.264 327.466L113.696 327.623L113.56 327.999C113.698 327.903 113.856 327.849 114.034 327.835C114.216 327.823 114.406 327.853 114.603 327.924ZM117.38 328.93C117.725 329.055 117.957 329.234 118.078 329.47C118.202 329.706 118.203 329.991 118.081 330.327L117.537 331.831L117.109 331.676L117.228 331.347C117.111 331.436 116.97 331.486 116.807 331.498C116.647 331.508 116.472 331.478 116.281 331.409C116.002 331.308 115.802 331.159 115.681 330.963C115.564 330.768 115.545 330.561 115.625 330.341C115.704 330.122 115.847 329.976 116.055 329.902C116.264 329.825 116.542 329.849 116.89 329.975L117.604 330.234L117.637 330.145C117.707 329.95 117.705 329.781 117.629 329.637C117.554 329.492 117.406 329.381 117.187 329.301C117.04 329.248 116.886 329.221 116.727 329.22C116.569 329.216 116.427 329.237 116.3 329.283L116.235 328.877C116.401 328.82 116.583 328.797 116.78 328.808C116.98 328.817 117.179 328.857 117.38 328.93ZM116.482 331.088C116.654 331.15 116.817 331.167 116.969 331.137C117.123 331.104 117.254 331.027 117.361 330.906L117.487 330.558L116.791 330.307C116.409 330.168 116.171 330.227 116.078 330.484C116.033 330.61 116.045 330.726 116.117 330.833C116.188 330.941 116.309 331.025 116.482 331.088ZM122.4 330.747C122.713 330.86 122.928 331.041 123.044 331.288C123.163 331.537 123.158 331.84 123.028 332.198L122.509 333.631L122.058 333.468L122.558 332.086C122.646 331.844 122.655 331.642 122.586 331.479C122.521 331.317 122.385 331.199 122.178 331.124C121.949 331.041 121.741 331.047 121.554 331.143C121.368 331.235 121.227 331.414 121.131 331.681L120.666 332.964L120.215 332.801L120.715 331.419C120.803 331.177 120.812 330.975 120.743 330.812C120.678 330.65 120.542 330.532 120.335 330.457C120.106 330.374 119.898 330.38 119.711 330.476C119.525 330.568 119.384 330.747 119.288 331.014L118.823 332.297L118.372 332.134L119.274 329.642L119.706 329.799L119.572 330.17C119.709 330.074 119.864 330.02 120.035 330.008C120.207 329.992 120.387 330.018 120.575 330.086C120.77 330.157 120.928 330.258 121.05 330.391C121.172 330.524 121.247 330.68 121.274 330.86C121.42 330.75 121.591 330.684 121.786 330.663C121.985 330.643 122.19 330.671 122.4 330.747ZM126.051 333.521C126.039 333.555 126.019 333.599 125.993 333.654L123.971 332.922C123.92 333.151 123.951 333.363 124.065 333.557C124.184 333.749 124.365 333.889 124.61 333.977C124.908 334.085 125.184 334.071 125.438 333.937L125.582 334.318C125.421 334.409 125.244 334.458 125.05 334.466C124.859 334.475 124.66 334.442 124.453 334.367C124.19 334.272 123.975 334.134 123.81 333.954C123.646 333.77 123.543 333.561 123.5 333.326C123.461 333.092 123.486 332.852 123.574 332.608C123.661 332.366 123.794 332.168 123.971 332.012C124.151 331.858 124.354 331.761 124.581 331.723C124.811 331.682 125.046 331.705 125.284 331.791C125.522 331.877 125.714 332.009 125.859 332.185C126.009 332.36 126.1 332.563 126.133 332.795C126.169 333.028 126.142 333.27 126.051 333.521ZM125.146 332.172C124.93 332.094 124.725 332.094 124.53 332.172C124.338 332.251 124.191 332.393 124.088 332.597L125.687 333.176C125.738 332.957 125.714 332.755 125.614 332.57C125.518 332.383 125.363 332.25 125.146 332.172Z" fill="#818181"/>
<path d="M186.784 427.552C186.691 427.748 186.575 427.923 186.437 428.079C186.297 428.233 186.161 428.342 186.031 428.405L185.775 428.06C185.901 427.991 186.022 427.892 186.139 427.764C186.256 427.635 186.352 427.494 186.426 427.341C186.607 426.962 186.59 426.721 186.374 426.617C186.302 426.583 186.232 426.581 186.166 426.612C186.099 426.642 186.038 426.693 185.982 426.762C185.925 426.827 185.851 426.924 185.759 427.054C185.637 427.232 185.526 427.373 185.428 427.478C185.331 427.579 185.215 427.651 185.08 427.693C184.945 427.736 184.794 427.716 184.625 427.636C184.409 427.532 184.28 427.359 184.237 427.116C184.191 426.872 184.242 426.599 184.387 426.295C184.464 426.136 184.56 425.986 184.675 425.846C184.791 425.705 184.906 425.6 185.021 425.529L185.275 425.879C185.055 426.013 184.882 426.213 184.755 426.477C184.667 426.661 184.63 426.815 184.643 426.94C184.657 427.065 184.714 427.151 184.813 427.199C184.891 427.236 184.966 427.239 185.037 427.206C185.108 427.174 185.173 427.124 185.231 427.056C185.291 426.985 185.369 426.884 185.466 426.752C185.591 426.576 185.702 426.439 185.797 426.34C185.891 426.237 186.003 426.165 186.133 426.125C186.264 426.084 186.41 426.102 186.573 426.18C186.789 426.284 186.917 426.46 186.957 426.709C186.995 426.953 186.937 427.234 186.784 427.552ZM188.018 424.556C188.042 424.645 188.047 424.744 188.032 424.851C188.014 424.957 187.982 425.06 187.934 425.159C187.819 425.4 187.664 425.555 187.472 425.625C187.279 425.695 187.062 425.672 186.822 425.557L185.511 424.927L185.316 425.333L184.96 425.162L185.155 424.756L184.632 424.505L184.84 424.072L185.362 424.323L185.691 423.638L186.048 423.809L185.718 424.494L187.012 425.116C187.141 425.178 187.255 425.194 187.355 425.164C187.456 425.131 187.535 425.054 187.593 424.934C187.656 424.802 187.673 424.671 187.642 424.542L188.018 424.556ZM186.621 422.731C186.519 422.589 186.467 422.428 186.466 422.246C186.464 422.064 186.514 421.868 186.615 421.657L187.034 421.859C187.02 421.881 187.002 421.914 186.982 421.956C186.87 422.19 186.851 422.409 186.928 422.612C187.002 422.811 187.169 422.972 187.427 423.096L188.617 423.668L188.409 424.1L186.021 422.953L186.22 422.538L186.621 422.731ZM189.128 419.578C189.161 419.594 189.203 419.618 189.255 419.65L188.324 421.588C188.547 421.662 188.761 421.652 188.965 421.558C189.168 421.459 189.325 421.293 189.438 421.058C189.575 420.773 189.589 420.497 189.481 420.23L189.875 420.126C189.949 420.294 189.98 420.476 189.968 420.67C189.958 420.861 189.905 421.056 189.81 421.254C189.689 421.506 189.53 421.706 189.334 421.852C189.135 421.997 188.917 422.078 188.678 422.097C188.442 422.113 188.206 422.064 187.972 421.952C187.74 421.84 187.556 421.689 187.419 421.497C187.283 421.303 187.207 421.091 187.192 420.861C187.175 420.628 187.221 420.397 187.331 420.168C187.44 419.94 187.59 419.762 187.781 419.636C187.969 419.504 188.181 419.434 188.415 419.424C188.65 419.412 188.888 419.463 189.128 419.578ZM187.696 420.344C187.596 420.551 187.575 420.755 187.634 420.957C187.694 421.156 187.82 421.317 188.013 421.439L188.749 419.906C188.536 419.834 188.332 419.838 188.138 419.918C187.943 419.995 187.795 420.136 187.696 420.344ZM190.454 416.819C190.487 416.835 190.529 416.859 190.58 416.891L189.649 418.829C189.873 418.903 190.086 418.892 190.291 418.798C190.493 418.7 190.651 418.533 190.764 418.299C190.901 418.013 190.915 417.737 190.806 417.471L191.201 417.366C191.275 417.535 191.306 417.716 191.294 417.91C191.284 418.101 191.231 418.296 191.136 418.494C191.014 418.747 190.856 418.946 190.66 419.092C190.461 419.237 190.242 419.319 190.004 419.337C189.767 419.353 189.532 419.305 189.297 419.192C189.066 419.081 188.882 418.929 188.744 418.738C188.609 418.543 188.533 418.331 188.517 418.102C188.5 417.868 188.547 417.637 188.656 417.409C188.766 417.18 188.916 417.003 189.106 416.876C189.295 416.745 189.506 416.674 189.74 416.665C189.976 416.652 190.213 416.703 190.454 416.819ZM189.021 417.584C188.922 417.791 188.901 417.996 188.959 418.198C189.019 418.396 189.146 418.557 189.338 418.679L190.074 417.147C189.862 417.074 189.658 417.078 189.464 417.159C189.268 417.235 189.121 417.377 189.021 417.584ZM192.429 415.375C192.453 415.464 192.457 415.562 192.442 415.67C192.425 415.776 192.392 415.879 192.344 415.978C192.229 416.218 192.075 416.374 191.882 416.444C191.689 416.514 191.473 416.491 191.232 416.376L189.921 415.746L189.726 416.151L189.37 415.98L189.565 415.575L189.042 415.324L189.25 414.891L189.773 415.142L190.102 414.457L190.458 414.628L190.129 415.313L191.422 415.934C191.551 415.996 191.666 416.013 191.765 415.983C191.866 415.95 191.945 415.873 192.003 415.753C192.067 415.621 192.083 415.49 192.053 415.361L192.429 415.375ZM191.603 411.275C191.748 410.971 191.952 410.774 192.215 410.681C192.476 410.585 192.776 410.618 193.116 410.781L194.49 411.442L194.282 411.874L192.957 411.238C192.726 411.127 192.525 411.099 192.354 411.153C192.184 411.208 192.049 411.339 191.949 411.547C191.836 411.781 191.817 411.999 191.89 412.201C191.96 412.401 192.123 412.562 192.379 412.685L193.609 413.276L193.401 413.709L191.012 412.561L191.212 412.147L191.572 412.32C191.491 412.173 191.452 412.011 191.457 411.832C191.463 411.65 191.512 411.464 191.603 411.275ZM192.881 408.613C193.04 408.282 193.243 408.069 193.488 407.972C193.736 407.873 194.02 407.901 194.342 408.055L195.784 408.748L195.587 409.158L195.272 409.007C195.348 409.132 195.384 409.277 195.379 409.441C195.373 409.601 195.325 409.772 195.237 409.955C195.109 410.223 194.941 410.407 194.734 410.507C194.528 410.604 194.32 410.602 194.11 410.501C193.9 410.4 193.768 410.242 193.716 410.029C193.66 409.813 193.712 409.539 193.873 409.205L194.202 408.52L194.116 408.479C193.93 408.39 193.761 408.375 193.61 408.436C193.459 408.496 193.333 408.632 193.232 408.842C193.164 408.983 193.121 409.133 193.105 409.291C193.085 409.448 193.091 409.592 193.125 409.723L192.714 409.747C192.674 409.576 192.669 409.393 192.701 409.197C192.729 409 192.789 408.805 192.881 408.613ZM194.939 409.723C195.018 409.558 195.05 409.398 195.036 409.243C195.019 409.087 194.955 408.949 194.846 408.83L194.513 408.67L194.192 409.337C194.016 409.703 194.051 409.946 194.298 410.064C194.418 410.122 194.535 410.121 194.649 410.061C194.763 410.001 194.859 409.888 194.939 409.723ZM195.193 403.801C195.337 403.5 195.538 403.305 195.796 403.214C196.056 403.121 196.357 403.156 196.699 403.321L198.074 403.981L197.866 404.414L196.541 403.777C196.31 403.666 196.109 403.636 195.94 403.688C195.773 403.737 195.641 403.861 195.546 404.059C195.44 404.278 195.426 404.486 195.502 404.682C195.575 404.876 195.739 405.034 195.995 405.157L197.225 405.748L197.017 406.181L195.692 405.544C195.461 405.433 195.261 405.403 195.092 405.455C194.924 405.504 194.792 405.628 194.697 405.826C194.592 406.045 194.577 406.253 194.653 406.448C194.726 406.642 194.891 406.801 195.146 406.924L196.377 407.515L196.169 407.947L193.78 406.8L193.979 406.385L194.335 406.556C194.254 406.41 194.216 406.251 194.22 406.079C194.222 405.906 194.266 405.73 194.353 405.55C194.442 405.363 194.559 405.216 194.704 405.108C194.848 405 195.011 404.941 195.193 404.932C195.098 404.776 195.05 404.599 195.048 404.402C195.048 404.203 195.096 404.002 195.193 403.801ZM198.319 400.446C198.352 400.462 198.394 400.485 198.445 400.517L197.514 402.455C197.738 402.529 197.951 402.519 198.156 402.425C198.358 402.327 198.516 402.16 198.629 401.926C198.766 401.64 198.78 401.364 198.671 401.098L199.066 400.993C199.14 401.162 199.171 401.343 199.159 401.537C199.149 401.728 199.096 401.923 199.001 402.121C198.879 402.373 198.721 402.573 198.525 402.719C198.326 402.864 198.107 402.946 197.869 402.964C197.632 402.98 197.397 402.931 197.162 402.819C196.931 402.708 196.747 402.556 196.609 402.365C196.474 402.17 196.398 401.958 196.382 401.729C196.365 401.495 196.412 401.264 196.521 401.035C196.631 400.807 196.781 400.63 196.971 400.503C197.16 400.372 197.371 400.301 197.605 400.291C197.841 400.279 198.079 400.33 198.319 400.446ZM196.886 401.211C196.787 401.418 196.766 401.623 196.824 401.825C196.884 402.023 197.011 402.184 197.203 402.306L197.939 400.774C197.727 400.701 197.523 400.705 197.329 400.786C197.133 400.862 196.986 401.004 196.886 401.211Z" fill="#818181"/>
<path d="M85.9434 122.241C85.779 122.1 85.6394 121.943 85.5245 121.769C85.4119 121.594 85.3419 121.435 85.3145 121.293L85.7139 121.135C85.7481 121.274 85.8121 121.417 85.906 121.563C85.9999 121.71 86.1113 121.838 86.2403 121.949C86.5589 122.223 86.7964 122.268 86.9528 122.086C87.0049 122.026 87.0247 121.959 87.0121 121.887C86.9995 121.815 86.9669 121.743 86.9141 121.671C86.8661 121.599 86.7914 121.502 86.6899 121.379C86.5497 121.215 86.4419 121.072 86.3665 120.95C86.2935 120.83 86.2541 120.7 86.248 120.559C86.242 120.417 86.2998 120.276 86.4214 120.134C86.5778 119.952 86.7785 119.872 87.0237 119.893C87.271 119.912 87.5223 120.031 87.7777 120.251C87.9118 120.366 88.0317 120.497 88.1375 120.645C88.2433 120.793 88.3153 120.932 88.3535 121.062L87.9504 121.216C87.8773 120.969 87.7294 120.75 87.5068 120.559C87.3526 120.426 87.2133 120.35 87.0889 120.331C86.9645 120.313 86.8665 120.345 86.7949 120.428C86.7384 120.494 86.7166 120.565 86.7296 120.642C86.7425 120.719 86.7743 120.795 86.8248 120.869C86.8779 120.946 86.9554 121.047 87.0572 121.174C87.1952 121.341 87.2994 121.483 87.3698 121.601C87.4449 121.718 87.4852 121.845 87.4909 121.982C87.4966 122.118 87.4408 122.255 87.3235 122.392C87.1671 122.574 86.9639 122.652 86.7137 122.626C86.4682 122.6 86.2114 122.471 85.9434 122.241ZM88.5182 124.208C88.426 124.208 88.3298 124.187 88.2297 124.145C88.1318 124.101 88.0411 124.042 87.9576 123.971C87.7553 123.797 87.6452 123.608 87.6273 123.404C87.6094 123.199 87.6873 122.996 87.8611 122.794L88.809 121.69L88.4676 121.397L88.7249 121.097L89.0663 121.39L89.4442 120.95L89.8084 121.263L89.4305 121.703L90.0071 122.198L89.7498 122.498L89.1732 122.003L88.2383 123.091C88.1449 123.2 88.0998 123.306 88.1029 123.41C88.1086 123.516 88.162 123.612 88.2632 123.699C88.3745 123.795 88.4965 123.845 88.6292 123.849L88.5182 124.208ZM90.6431 123.331C90.8062 123.269 90.9758 123.261 91.1518 123.306C91.3278 123.352 91.5044 123.451 91.6814 123.603L91.3785 123.956C91.3604 123.936 91.3337 123.911 91.2983 123.88C91.101 123.711 90.8944 123.637 90.6786 123.658C90.4674 123.679 90.2684 123.798 90.0816 124.015L89.2217 125.017L88.8575 124.704L90.584 122.693L90.933 122.993L90.6431 123.331ZM93.0395 126.568C93.0156 126.596 92.9816 126.631 92.9375 126.672L91.3063 125.271C91.177 125.468 91.1314 125.677 91.1696 125.898C91.2124 126.12 91.3324 126.315 91.5297 126.485C91.77 126.691 92.0329 126.776 92.3186 126.74L92.3177 127.148C92.1354 127.176 91.9521 127.159 91.7678 127.098C91.586 127.038 91.4116 126.937 91.2447 126.793C91.0323 126.611 90.8808 126.406 90.7902 126.179C90.7018 125.949 90.6794 125.717 90.723 125.482C90.7692 125.249 90.8769 125.034 91.0463 124.837C91.2135 124.642 91.4075 124.503 91.6281 124.42C91.8513 124.34 92.0756 124.321 92.3012 124.366C92.5315 124.41 92.7427 124.514 92.9349 124.679C93.1271 124.844 93.2598 125.035 93.333 125.252C93.4109 125.468 93.4243 125.69 93.3731 125.919C93.3244 126.15 93.2133 126.366 93.0395 126.568ZM92.6711 124.987C92.4966 124.837 92.3043 124.764 92.0942 124.768C91.8867 124.774 91.6989 124.855 91.531 125.009L92.8208 126.117C92.9461 125.93 92.9949 125.733 92.9672 125.524C92.9443 125.316 92.8456 125.136 92.6711 124.987ZM95.3623 128.563C95.3384 128.591 95.3044 128.625 95.2602 128.666L93.629 127.266C93.4998 127.462 93.4542 127.671 93.4923 127.893C93.5352 128.114 93.6552 128.31 93.8525 128.479C94.0927 128.685 94.3557 128.771 94.6414 128.735L94.6405 129.143C94.4582 129.171 94.2749 129.154 94.0906 129.092C93.9087 129.033 93.7344 128.931 93.5675 128.788C93.355 128.606 93.2035 128.401 93.113 128.174C93.0246 127.944 93.0022 127.712 93.0458 127.477C93.092 127.244 93.1997 127.029 93.3691 126.832C93.5363 126.637 93.7302 126.498 93.9509 126.415C94.174 126.334 94.3984 126.316 94.624 126.36C94.8543 126.404 95.0655 126.509 95.2577 126.674C95.4499 126.839 95.5826 127.03 95.6558 127.246C95.7337 127.463 95.7471 127.685 95.6959 127.913C95.6472 128.144 95.536 128.361 95.3623 128.563ZM94.9938 126.981C94.8193 126.831 94.6271 126.758 94.417 126.763C94.2094 126.769 94.0217 126.849 93.8538 127.004L95.1436 128.111C95.2689 127.925 95.3177 127.727 95.29 127.519C95.2671 127.31 95.1683 127.131 94.9938 126.981ZM96.246 130.844C96.1538 130.844 96.0576 130.823 95.9575 130.781C95.8596 130.736 95.7689 130.678 95.6854 130.607C95.4831 130.433 95.373 130.244 95.3551 130.04C95.3372 129.835 95.4151 129.632 95.5888 129.43L96.5368 128.326L96.1953 128.033L96.4527 127.733L96.7941 128.026L97.172 127.586L97.5362 127.899L97.1583 128.339L97.7349 128.834L97.4776 129.134L96.9009 128.639L95.966 129.727C95.8727 129.836 95.8275 129.942 95.8307 130.046C95.8364 130.152 95.8898 130.248 95.991 130.335C96.1023 130.431 96.2242 130.481 96.3569 130.485L96.246 130.844ZM100.42 131.107C100.676 131.326 100.814 131.575 100.835 131.852C100.861 132.129 100.751 132.41 100.506 132.696L99.5122 133.853L99.148 133.54L100.106 132.425C100.273 132.23 100.352 132.044 100.343 131.865C100.334 131.686 100.243 131.521 100.068 131.371C99.8709 131.202 99.6654 131.127 99.4517 131.145C99.2402 131.161 99.0421 131.277 98.8575 131.492L97.9682 132.527L97.604 132.215L99.3305 130.204L99.6795 130.504L99.4189 130.807C99.5813 130.767 99.7483 130.772 99.92 130.822C100.094 130.875 100.261 130.97 100.42 131.107ZM102.661 133.031C102.939 133.27 103.093 133.521 103.122 133.783C103.154 134.048 103.054 134.316 102.822 134.586L101.779 135.8L101.434 135.504L101.662 135.238C101.521 135.28 101.372 135.277 101.215 135.23C101.062 135.182 100.909 135.092 100.755 134.96C100.529 134.766 100.395 134.557 100.352 134.331C100.312 134.107 100.367 133.906 100.519 133.729C100.671 133.552 100.857 133.466 101.078 133.471C101.3 133.473 101.551 133.594 101.832 133.835L102.409 134.33L102.471 134.258C102.605 134.101 102.663 133.942 102.644 133.781C102.624 133.619 102.526 133.462 102.349 133.31C102.23 133.208 102.096 133.128 101.948 133.071C101.801 133.011 101.661 132.981 101.526 132.979L101.609 132.576C101.784 132.581 101.962 132.624 102.143 132.705C102.327 132.784 102.499 132.892 102.661 133.031ZM101.056 134.731C101.195 134.85 101.342 134.923 101.495 134.949C101.65 134.973 101.8 134.948 101.943 134.873L102.184 134.592L101.623 134.11C101.314 133.845 101.071 133.816 100.893 134.024C100.806 134.125 100.777 134.238 100.805 134.364C100.833 134.489 100.917 134.612 101.056 134.731ZM106.711 136.509C106.964 136.726 107.101 136.971 107.122 137.244C107.145 137.519 107.033 137.8 106.785 138.088L105.792 139.245L105.427 138.933L106.385 137.817C106.552 137.623 106.633 137.437 106.626 137.26C106.623 137.085 106.537 136.926 106.37 136.783C106.186 136.625 105.989 136.557 105.78 136.58C105.574 136.6 105.378 136.718 105.194 136.933L104.305 137.968L103.94 137.656L104.898 136.54C105.065 136.346 105.146 136.16 105.139 135.983C105.136 135.808 105.05 135.65 104.883 135.506C104.699 135.348 104.502 135.28 104.293 135.303C104.087 135.323 103.891 135.441 103.707 135.656L102.818 136.692L102.453 136.379L104.18 134.368L104.529 134.668L104.271 134.968C104.434 134.927 104.597 134.931 104.762 134.98C104.928 135.026 105.088 135.115 105.239 135.245C105.396 135.38 105.508 135.531 105.575 135.698C105.642 135.866 105.657 136.038 105.618 136.216C105.794 136.165 105.977 136.164 106.167 136.213C106.361 136.265 106.542 136.364 106.711 136.509ZM109.143 140.397C109.119 140.425 109.085 140.459 109.041 140.5L107.41 139.1C107.281 139.296 107.235 139.505 107.273 139.727C107.316 139.948 107.436 140.144 107.634 140.313C107.874 140.519 108.137 140.605 108.422 140.569L108.422 140.976C108.239 141.004 108.056 140.988 107.872 140.926C107.69 140.867 107.515 140.765 107.349 140.622C107.136 140.439 106.985 140.235 106.894 140.008C106.806 139.778 106.783 139.546 106.827 139.311C106.873 139.078 106.981 138.863 107.15 138.665C107.317 138.471 107.511 138.332 107.732 138.249C107.955 138.168 108.179 138.15 108.405 138.194C108.635 138.238 108.847 138.343 109.039 138.508C109.231 138.673 109.364 138.864 109.437 139.08C109.515 139.297 109.528 139.519 109.477 139.747C109.428 139.978 109.317 140.194 109.143 140.397ZM108.775 138.815C108.6 138.665 108.408 138.592 108.198 138.596C107.991 138.603 107.803 138.683 107.635 138.838L108.925 139.945C109.05 139.759 109.099 139.561 109.071 139.353C109.048 139.144 108.949 138.965 108.775 138.815Z" fill="#818181"/>
<path fill-rule="evenodd" clip-rule="evenodd" d="M186.06 194.951C191.113 194.449 195.06 190.185 195.06 185C195.06 179.477 190.582 175 185.06 175C179.537 175 175.06 179.477 175.06 185C175.06 190.185 179.006 194.449 184.06 194.951V205C184.06 205.552 184.507 206 185.06 206C185.612 206 186.06 205.552 186.06 205V194.951Z" fill="#C91C1C"/>
<circle cx="185.06" cy="185" r="5" fill="white"/>
</svg>
